<svg version="1.2" xmlns="http://www.w3.org/2000/svg" viewBox="0 0 78 254" width="78" height="254">
	<style>
		.s0 { opacity: .26;fill: #f6f7f5 } 
		.s1 { opacity: .28;fill: #0b0b0b } 
		.s2 { opacity: .3;fill: #fffe00 } 
		.s3 { opacity: .3;fill: #1a1a1a } 
		.s4 { opacity: .34;fill: #1a18ce } 
		.s5 { opacity: .38;fill: #141414 } 
		.s6 { opacity: .61;fill: #1f1f1e } 
		.s7 { opacity: .64;fill: #545454 } 
		.s8 { opacity: .65;fill: #343434 } 
		.s9 { opacity: .69;fill: #a6a89f } 
		.s10 { opacity: .71;fill: #3b3b3b } 
		.s11 { opacity: .74;fill: #282828 } 
		.s12 { opacity: .94;fill: #e16ddc } 
		.s13 { opacity: .97;fill: #f0f1ef } 
		.s14 { opacity: .98;fill: #545454 } 
		.s15 { opacity: .98;fill: #222221 } 
		.s16 { opacity: .98;fill: #292929 } 
		.s17 { opacity: .98;fill: #383837 } 
		.s18 { opacity: .98;fill: #171716 } 
	</style>
	<g id="Background">
		<path id="Path 0" fill-rule="evenodd" class="s0" d="m21 166v41h-1v-4-2-7-4-9-1-1-1-12zm-2 37v4h-1v-36-2-3h1v12 1 1 1 9 4 7zm-3-17v17h-1v-2-2-13zm-3 14v2h-1l1-6zm-9 1h-1v-1h1zm1-18l-1 14h-1zm9 1l-1 12 1-13zm-13-1l1 11h-1zm16-7l-1 10v-1-9zm-3 7v-8h1v8zm-10-8l1 6-2-6zm-2-1l-1 7v-7zm0-37v1h-1v-35h1v4 1 1 1 22 1 1 2zm3-34v32h-1v-9-1-13-5-1-1-2zm15 0v23h-1v-8-1-4-10zm-2 17v3h-1v-3zm-1-1v1l-1-13h1v1 3 2 1 1 3zm22-2v1l-1-4h1v1zm-1-4v1l-1-4h1v1 1zm-1-4v1l-1-2h1zm-34-25v2h-1v-2zm17-12v3h-1v-1-1-1zm-18 1v1h-1v-17h1v2 3 6 2 1 1zm3-22v22h-1v-1-1-4-6-1-9zm15 20h-1v-1h1zm-2-1l-1 1h-1v-1-16-2-1-2h1l1 20zm-4 0v-13h1v13zm7-30l-1 29v-1-1-2-3-1-6-5-1-2-5-1-1zm-2 28v1h-1v-23-4h1v5 2 1 5 6 1 3 2zm25-1h-1v-1h1zm1-1h-1v-1h1zm-31-10v1l-1-6h1v3 1zm1-5h-1v-1h1zm30-28h-1v-1h1z"/>
		<path id="Path 1" fill-rule="evenodd" class="s1" d="m21 208l-1 15v-2-4-1-8zm-2 13v1h-1v-2-12h1v8 1zm-3-11l1 9h-1v-1-1-2-2-2zm-1 7v1h-1v-8h1v1 2 2zm-2 1h-1v-1h1zm-1-6v5h-1v-1-1-1-1-1zm-2 2v1h-1l1-3v1zm1-4v1h-1l1-3v1zm5-7v7h-1v-1-6zm-2 6v1h-2v-1-1l1-1v-3h1zm-10-7v8h-1v-6-2zm8 5v1h-1l1-5zm-10-3v3h-1v-13h1v3 1zm11-1h-1v-1h1zm-8-5l-1 2v-1-1zm-4-17v2h-1v-2zm68-18v14-1zm-52 9v3h-1v-2-1zm-15-15v16h-1v-32h1v1 1 1 1 3 1 1 1 1 1zm14 9v5h-1l1-11zm-11-31l-1 36v-5-5-3-3-1-5-5-2-1-2-1-1-2zm13 31v3h-1v-3-6l1-1v-4h1v8zm5-12l-2 10h-1v-10h2zm44 8h-1v-1h1zm-50-7v4h-1l-1-6h1 1v1zm10-2v1h-4v-1zm-12-1v1l-6-1h1 3zm12-2v1h-3-1v-1zm-7-13l3 13h-1-2v-3-3-4-1zm-3 8v5h-1-1-3v-1l5-20v1 7 1 1 2 1 2zm-8 5h-1v-1h1zm10-3v2h-1v-4-1-2h1v2zm-18-9v3h-1v-3zm19-11v10h-1v-5-3-2zm38 9h-1v-1h1zm-2-3h-1v-1h1zm-18-1v1h-1-1v-1zm16-6l1 6h-1v-3-2zm-14 5v1h-1-1zm1 0h-1v-1h1zm1-2v1h-1v-5h1v1 2zm-24-5v3h-1v-3zm35-5l1 7h-1v-3-1-1zm-12 5v1l-1-3h1v1zm-1-3v1l-1-4h1v1zm12-7l1 5h-1v-1-2-1zm-1-4l1 4h-1v-2-1zm-1-5l1 4h-1v-1-1-1zm-13 1v1h-1v-2h1zm-20-1v2h-1v-8h1v1 3 1zm33-2v2h-1v-2zm-14 1v1l-1-4h1v1 1zm15-3l-1 2v-1-1zm-49-3v5h-1v-11h1v1 1 1 2zm7-5l-4 9h-1v-2-7h1 1 1 1zm43-9l-1 17v-1-1-6-1-1-3-2-1-1zm-17 16v1l-11-3h3 4 1 1 1 1v1zm-12-6l-3 7h-1l2-10h1 1v1 1zm-7 4v1l-4-7v-1h1 1 2v2zm8-1v1l-1-4h1zm-6-5v2h-1v-1-1zm-6 0l-3 1v-1h1 1zm-11-1v1h-1v-4h1zm36-3v1h-1-1v-1l2-1zm8-8v8h-1v-1-1-2-2-2zm-10 8h-1v-1h1zm-12-1v1h-1-1-2v-4-2-4h1zm-7-10l-4 11v-1l3-10zm-14 10v1h-1l1-2zm45-1v1h-1v-8h1v1 1 1 1 2zm-9 1h-1v-1h1zm-7-3l3 3h-1-1-1v-1-1zm-5 2v1h-1-1-1l3-2zm-8-2v3h-1v-10l-1-1v-5h1 1v2 1 8zm-12 2l6 1h-1-2-1-1-1zm33-1v1h-1l1-3v1zm-34-12l1 13h-1-1v-11-2zm22 12h-1v-1h1zm26-5l-1 4v-1-1-1-1zm-51 3v1l-1-9h1zm38-2v2h-1l1-12v2 1 1zm14-3l-1 2v-1-1zm-8 1h-1v-1h1zm11-5l-1 2v-1-1zm-7 1v1h-1-1v-1-1h2zm-35-4v5l-1-5zm36 3h-1v-1h1zm-3 0h-1v-1h1zm4-1h-1v-1h1zm-5-2v2l-1-1v-1zm6 1h-1v-1h1zm1-1h-1v-1h1zm-13 0h-1v-1h1zm15-2v1h-1-1zm-6-2l-2 3v-1-2h1zm0 0v-1h5v1zm-4-2h-1v-1h1zm1-2l-1 1 1-2zm1-2v1h-1l1-2zm1-2v1h-1l1-2zm9-1l-1 1h-1v-1-1-1-4h1l1 5zm-8-1v1h-1l1-2zm9-1v1h-1l1-2zm-57-8v9h-1l1-17v6 1zm49 7v1h-1l1-4v1 1zm9-1v1h-1l1-2zm1-3v2h-1v-3h1zm-3-1l-1 2v-1-1zm-6 0v2h-1l-3-7h1 1 2v3 1zm-47-14v15h-1v-1-7-3-2-2zm55 13v1h-2v-1h1zm-46-2l-1 3h-1v-4l1-1v-3-1zm3-1v3h-1l-1-2-2-6h-1v-3-1-1h1 1l1-1 1-1h1v2l-1 1v8zm-2 1v2h-1v-2zm3-5v4h-1v-1-8-1-2-1h1 1v2 1 1 4zm-6 3v1l-1-5h1v1zm-1-6v2l-1-2zm37 0v1h-1l1-2zm1-2v1h-1v-2h1zm-28-8v9h-1v-1-1-1-2-1-1-2zm-12 7v1l-1-2h1zm52-1l2 1h-1zm-1-1h-1v-1h1zm-14 0h-1v-1h1zm-32-1v1h-1-1-1v-3h1zm45 0h-1v-1h1zm-44 0h-1v-1h1zm41-2l2 1h-1-1zm-40 1h-1v-1h1zm40-1h-1v-1h1zm-39-2v2h-1v-6h1v1zm-4 0l-1 2v-1-1zm42 1h-1v-1h1zm-1-1h-1v-1h1zm-32-2l-1 2v-1-1zm29 0l2 1h-1zm-12 0v1l-2-1h1zm12 0h-1v-1h1zm-28-2l-1 2v-1-1zm27 1h-1v-1h1zm-3-2l2 1h-1-1zm-12 0v1l-2-1h1zm-11-2l-1 3v-1-1-1zm21 1l2 1h-1-1zm-13-1v1l-2-1h1zm-5-2l-3 2v-1-1-1h1 1 1zm-5 1l-1 1h-1v-5h1 1v3zm6-1l1 1-2-1zm12 0h-1v-1h1zm-3-2l2 1h-1-1zm-2-1l2 1h-1-1zm-2-1l2 1h-1-1zm-2-1l2 1h-1-1zm-2-1l2 1h-1-1zm-2-1l2 1h-1-1zm-2-4l2 4h-1-1v-1-1-1zm-1-3l1 3h-1v-2zm-1-2l1 2h-1v-1zm0 0h-1v-1h1zm-1-1h-1v-1h1zm-1-1h-1v-1h1zm-1-2v1h-1-1v-1z"/>
		<path id="Path 2" class="s2" d="m5 198h-1v-1h1zm10-25v2h-1l1-3zm-13 1h-1v-1h1zm35-66h-1v-1h1zm-32-5h-1v-1h1zm15-31h-1v-1h1zm-5-1h-1v-1h1zm26-1h-1v-1h1zm1-1h-1v-1h1zm1-1h-1v-1h1zm-28-18h-1v-1h1zm27-29l2 1h-1-1zm-2-1l2 1h-1-1z"/>
		<path id="Path 3" fill-rule="evenodd" class="s3" d="m18 253v1h-6v-1h1 1 3zm2-1l-2 1v-1h1zm3-4l-1 2v-1-1zm1-3l-1 3v-1-2zm-17 2v1l-3-1h1 1zm19-6l-2 4v-1-1l1-2zm-5 3h-1v-1h1zm-17-3v2h-1v-2zm25-1l-3 1v-1h2zm-26 0v1l-1-4h1zm29-1l-3 1v-1h1 1zm2-1l-2 1v-1h1zm3-1l-3 1v-1h1 1zm-16-1v2h-1l-1-1v-3h1l1 1zm18 0l-2 1v-1h1zm-13 0v1h-1-2v-1-2-1zm-24 0v1l-1-30h1v3 3 3 1 1 1 1 1 5 8zm39-1l-2 1v-1h1zm-13 0v1h-1-1zm-22-1v2h-1l-1-1v-9h1 1v1 1 4zm24 0v1h-1-1zm-13-1v2h-1-1v-1-1h1zm27 0l-2 1v-1h1zm-12 0v1h-1-1zm14-1l-2 1v-1h1zm-13 1h-1v-1h1zm-11-3l1 3h-1v-1-1zm26 1l-2 1v-1h1zm-13 0v1h-1-1zm-28-2v3h-1v-4h1zm30 1v1h-1-1zm-21-1v2h-4v-1-1l3-5h1v1zm35 0l-2 1v-1zm-13 1h-1v-1h1zm-17-3l1 3h-1v-1-1zm32 1l-2 1v-1zm-14 1h-1v-1h1zm-25-7l-2 7h-1v-5-1-1-1h1 1zm27 5l-1 1h-1zm1 0h-1v-1h1zm-22-2l1 2h-1v-1zm37 0l-2 1 1-1zm-14 1h-1v-1h1zm1-1h-1v-1h1zm-24-2v2h-1v-1-1zm26 0l-1 1h-1zm-31 0v1l-1-2zm50-2l-5 1v-1h1 1zm-47-1v2h-1v-1-1zm49 0l-2 1v-1h1zm-59 0v1h-1l-1-1h-1-1-1v-1-1-1-1-3-3h1l4 8v1zm9 0h-1v-1h1zm53-2l-2 1v-1h1zm-55 0v1h-1-1v-1h1zm-3 0h-1v-1h1zm-3 0h-1v-1h1zm1-2v1h-1v-2h1zm64-3l-1 2v-1-1zm-27 2h-1v-1h1zm4-7l-2 6h-1-1l3-6zm24-1l1 2h-1v-1zm-25 0v1l-1-5h1v2zm25 0h-1v-1h1zm-1-1h-1v-1h1zm-5-2l2 1h-1-1zm-1-3l1 3h-1v-2zm-19 1v1l-1-2h1zm18-3l1 2h-1v-1zm-19 1v1l-1-2h1zm18-4l1 3h-1v-2zm-19 2v1l-1-2zm18-6l1 4h-1v-2-1zm-22 1v1l-2-1h1zm21-3l1 2h-1v-1zm-24 1v1l-1-2h1zm24-1h-1v-1h1zm-1-1h-1v-1h1zm-1-1h-1v-1h1zm-1-1h-1v-1h1zm-21 0h-1v-1h1zm19-3l1 2h-1v-1zm-18 2h-1v-1h1zm1-2v1h-1l1-3v1zm16-2l1 2h-1v-1zm1-2l-1 2h-1v-1-1-1h1 1zm-17 2v-11h1v11zm8-5v4h-1-1v-4h1zm14 2l-3 1v-1h1 1zm4-2v1h-3v-1h2zm-8-3v1h-1l-1-2h-1v-1h1 1 1v1zm-18-4v1l-1-7h1v4zm-1-7v1l-1-6h1v3zm25-2v1h-1-1v-1zm-11-1l9 1h-1-1-2-1-4zm1-2h-1v-1h1zm-16-1v1l-2-3h2zm17-4v3-1zm-19 1v1h-10v-1h4 2zm19-3v2h-1v-2zm-15 0v1h-3v-1l1-1 1-1h1 1v1zm16-3l-1 3v-1-2zm-26 2v1h-1-3-1v-1l5-2v1zm19-1v1h-1-1v-1-1-2h1 1v1 1zm7-12v11-1-1-1-4-2-1zm-24 10l-1 1h-1l1-2v-1h1v1zm-4-7v1h-1l1-2zm1-2v1h-1l1-2zm27-1h-1v-1h1zm-26-1v1h-1l1-2zm25-1h-1v-1h1zm-24 0h-1v-1h1zm23-1h-1v-1h1zm-21-1v1h-1-1zm1 0h-1v-1h1zm29-67l-1 2v-1-1zm2-3l-1 2v-1-1zm1-2l-1 2v-1-1zm1-2l-1 2v-1-1zm1-2l-1 2v-1-1zm6-3l-6 3v-1-1-1h5zm1-2l-1 2v-1-1zm1-4v4h-1v-1-2-1zm-1 0h-1v-1h1zm-1-1h-1v-1h1zm-2-3l1 2h-1v-1zm0 0h-1v-1h1zm-1-1h-1v-1h1zm-1-1h-1v-1h1zm-1-1h-1v-1h1zm-1-1h-1v-1h1zm-67-2v2h-1v-12h1v4 1zm64 0l2 1h-1-1zm-4-2l4 2h-4v-1zm-57-2l-1 2h-1zm2-2v3l-2-1v-1l1-1zm8-7l-3 4h-1v-1-3-1h1 3 1v1zm-10 2v2h-1v-1-8-2-1h1 1v1 1 2 1 3 1zm2-3v1h-1v-3h1zm10-3l-1 1-3-1v-1h1 1v-1h1 1zm-1-1h-1v1h1zm-14-4v5h-1l1-7v1zm1-4v2h-1l1-7v1 2 1zm3-6v1h-2-1zm1 0h-1v-1h1zm1-1h-1v-1h1zm4-4v1h-2zm5-1v1h-1-1-2-1v-1z"/>
		<path id="Path 4" class="s4" d="m21 208h-1v-1h1zm-2 0h-1v-1h1zm-15-6h-1v-1h1zm13-26h-1v-1h1zm1-7v2h-1v-2zm3-5v2h-1v-2zm-2-1v3h-1zm1-36h-1v-1h1zm28-2h-1v-1h1zm-30-1h-1v-1h1zm33-8h-1v-1h1zm-2-6h-1v-1h1zm-29-9v2h-1v-2zm27-13h-1v-1h1zm-2-8h-1v-1h1zm-25-4v2h-1v-2zm0-7h-1v-1h1zm-1-27h-1v-1h1zm2-3h-1v-1h1z"/>
		<path id="Path 5" class="s5" d="m21 245h-1v-1h1zm-1-1h-1v-1h1zm1-5h-1v-1h1zm-1-1h-1v-1h1zm0-4h-1v-1h1zm-5 0h-1v-1h1zm-7 0h-1v-1h1zm1-3h-1v-1h1zm9-4v2h-1v-2zm1-4h-1v-1h1zm-7-2h-1v-1h1zm-8 0h-1v-1h1zm12-1h-1v-1h1zm-4-9v1h-1-1v-1h1zm2-7h-1v-1h1zm35-22h-1v-1h1zm12-3v1h-2v-1h1zm-4 1h-1v-1h1zm-8-3h-1v-1h1zm10-1h-1v-1h1zm-55-3v2h-1v-2zm54 1h-1v-1h1zm-9-8v2h-1v-1-1zm-1 0h-1v-1h1zm7-6h-1v-1h1zm-36-5h-1v-1h1zm20-3h-1v-1h1zm-6 0h-1v-1h1zm-14-2h-1v-1h1zm24-1h-1v-1h1zm1-3v2h-1v-1-1zm-25-4h-1v-1h1zm-1-14h-1v-1h1zm33-18h-1v-1h1zm-33-15h-1v-1h1zm0-3h-1v-1h1zm28-3h-1v-1h1zm0-11h-1v-1h1zm-26-8h-1v-1h1zm37-1h-1v-1h1zm0-9h-1v-1h1zm2-11h-1v-1h1zm-48-10h-1v-1h1zm8-6h-1v-1h1zm-13-3h-1v-1h1zm15-7h-1v-1h1zm-18-1h-1v-1h1zm15-3h-1v-1h1zm-12-2h-1v-1h1z"/>
		<path id="Path 6" class="s6" d="m13 253h-1v-1h1zm-7-6h-1v-1h1zm18-2h-1v-1h1zm-20-1h-1v-1h1zm17-1h-1v-1h1zm-17-2h-1v-1h1zm28-2h-1v-1h1zm-12 0h-1v-1h1zm17-2h-1v-1h1zm-32-1v1h-1v-2zm-2 1h-1v-1h1zm36-1h-1v-1h1zm-31-3l-1 1h-1v-2h1l1-1h1v2zm26 0h-1v-1h1zm-14 0h-1v-1h1zm-3 0h-1v-1h1zm29-1h-1v-1h1zm2-1h-1v-1h1zm-30-2l-2 2v-2h1zm-6 1h-1v-1h1zm6-3h-1v-1h1zm-13-1h-1v-1h1zm15-5v2h-1v-1-1zm-9 0v1h-1v-2h1zm6 0h-1v-1h1zm-14 0h-1v-1h1zm44-1h-1v-1h1zm-31-1h-1v-1h1zm-7 0h-1v-1h1zm-6 0h-1v-1h1zm7-1h-1v-1h1zm10-1h-1v-1h1zm-9 0h-1v-1h1zm-8 0h-1v-1h1zm70-2h-1v-1h1zm-25 0h-1v-1h1zm-37-2h-1v-1h1zm1-2h-1v-1h1zm39-3h-1v-1h1zm22-2h-1v-1h1zm-2 0h-1v-1h1zm-57-3h-1v-1h1zm35-2h-1v-1h1zm-34-2v2l-1-1zm30-4h-1v-1h1zm20-2h-1v-1h1zm-3-4h-1v-1h1zm-46-3h-1v-1h1zm27-3h-1v-1h1zm15-8v1h-1v-1-1h1zm-9 1h-1v-1h1zm-45-5v2h-1v-7h1zm13 0v1h-1-1v-1h1zm26 0h-1v-1h1zm5-4h-1v-1h1zm1-1h-1v-1h1zm-1-1h-1v-1h1zm-6-1h-1v-1h1zm27-1h-1v-1h1zm-5-1h-1v-1h1zm-9-1h-1v-1h1zm-51-3v3h-1v-3zm14 1l-1 1h-1v-1h1zm37 0h-1v-1h1zm-14-1h-1v-1h1zm16-2h-1v-1h1zm-17-2v1h-2v-1zm-1-1h-1v-1h1zm-23 0h-1v-1h1zm18-1h-1v-1h1zm-2 0h-1v-1h1zm25-1h-1v-1h1zm-7 0h-1v-1h1zm-7 0h-1v-1h1zm-10 0h-1v-1h1zm-21-2v1h-1-1v-1zm46-1h-1v-1h1zm-15 0h-1v-1h1zm-8-2h-1v-1h1zm-2 0h-1v-1h1zm-3-3v2h-1v-2zm-11-3v1h-1v-2h1zm1-3v2h-1v-1-1zm37-1h-1v-1h1zm-18-3h-1v-1h1zm-21-4v1h-1v-1-1h1zm36-2h-1v-1h1zm-36-7h-1v-1h1zm34-5h-1v-1h1zm-14-5h-1v-1h1zm12-4h-1v-1h1zm-13-1h-1v-1h1zm13-2h-1v-1h1zm1-2h-1v-1h1zm-34-2h-1v-1h1zm30-10h-1v-1h1zm-9-1h-1v-1h1zm-14 0h-1v-1h1zm-18-1h-1v-1h1zm-3 0h-1v-1h1zm28-3v1h-1-1v-1zm-3 1h-1v-1h1zm24-1h-1v-1h1zm-12 0h-1v-1h1zm-37 0h-1v-1h1zm45-2h-1v-1h1zm-3-4v1h-1v-2h1zm-29-2l1 1h-1-1v-1zm40 0h-1v-1h1zm-5-1h-1v-1h1zm7-1h-1v-1h1zm-39-2v1h-1v-2-1h1v1zm36-1h-1v-1h1zm-7-1h-1v-1h1zm-28-2h-1v-1h1zm46-3h-1v-1h1zm1-2h-1v-1h1zm2-4h-1v-1h1zm1-2h-1v-1h1zm-55 0h-1v-1h1zm61-3h-1v-1h1zm1-2h-1v-1h1zm0-3h-1v-1h1zm-2-2h-1v-1h1zm-72-4l-1 3v-6h1zm10-1h-1v-1h1zm56-2h-1v-1h1zm-65-4v2h-1v-5h1 2v1zm59 1h-1v-1h1zm-46 0h-1v-1h1zm-7 0h-1v-1h1zm-1-5v3h-1v-3zm49 1h-1v-1h1zm-42 0h-1v-1h1zm28-1h-1v-1h1zm-32-1h-1v-1h1zm-7-11v8h-1v-8zm-2 2v6h-1v-3-3zm35 5h-1v-1h1zm11-1h-1v-1h1zm-31 0h-1v-1h1zm3-2h-1v-1h1zm23-1h-1v-1h1zm-2-1h-1v-1h1zm-11 0h-1v-1h1zm-23 0h-1v-1h1zm1-1h-1v-1h1zm30-1h-1v-1h1zm-2-1h-1v-1h1zm-2-1h-1v-1h1zm-14-1h-1v-1h1zm-14 0h-1v-1h1zm22-2h-1v-1h1zm-25 0h-1v-1h1zm23-1h-1v-1h1zm-7-12h-1v-1h1z"/>
		<path id="Path 7" class="s7" d="m20 201v2h-1v-2zm0-11v4h-1v-4zm0-10h-1v-1h1zm-16-25l-1 2h-1v-4l2 1zm0-11v5h-1l-1-1v-3l1-1zm14-6h-1v-1h1zm-14-12v9h-1l-1-1v-1-1-22h1l1 2v13zm15 0v1h-1v-3-1-3-1-1h1zm0-9l-1 1h-1v-3-1-1h2zm-16-8h-1v-1h1zm1-3l-1 1h-1v-4l2 2zm-1-35h-1v-1h1zm16-1h-1v-1h1zm-15-3l-2 1v-6l2-1zm16-5v3h-1v-3zm0-7v6h-1v-6zm-4-3v2h-1v-2zm4-2h-1v-1h1z"/>
		<path id="Path 8" class="s8" d="m41 235h-1v-1h1zm-21-18v4h-1v-4zm-17 3h-1v-1h1zm13-5v2h-1v-2zm4-7v8h-1v-8zm-17 5v3h-1v-3zm8 2h-1v-1h1zm5-4v2h-1v-2zm-4-1h-1v-1h1zm-9-6v6h-1v-3-3zm12-1v6h-1v-5-1l-1-1v-2h1l1 1zm-2 1v3h-1v-4h1zm-9-4h-1v-1h1zm57-26h-1v-1h1zm-45-1h-1v-1h1zm1-13v6h-1v-6zm-13 1v5h-1v-5zm14-6v4h-1v-4zm-14 0v3h-1v-1zm0-6v5l-2-1v-1-1-1l1-1zm6 3h-1v-1h1zm-1-1h-1v-1h1zm-6-2h-1v-1h1zm17-5v3h-1v-3zm-16-2v2h-1l-1-1v-1h1zm14 0h-1v-1h1zm-14-3v2h-1-1-1v-3h1zm16 1h-1v-1h1zm-2-1h-1v-1h1zm1-1h-1v-1h1zm-1-6v5h-1v-7h1zm-15 3l-1 1v-2zm36-21h-1v-1h1zm-36-4h-1v-1h1zm0-2h-1v-1h1zm1-1h-1v-1h1zm0-4v2l-2-2v-5-1-2-1-1h2v7 2zm14-7l-1 3-1-1v-5h1v1 1zm6-2h-1v-1h1zm-15-1h-1v-1h1zm-7-1h-1v-1h1zm20-1h-1v-1h1zm-4-1v1h-1-1-2v-1zm0-2v1h-6v-1l4-11h1v10zm1-4v4h-1v-1-3zm-7 4h-1v-1h1zm-7-1h-1v-1h1zm22-1h-1v-1h1zm-23-11v11h-1v-2l-1-1v-8zm15 3v4h-1v-8h1v1 1zm-3-7v5h-1v-5-1h1zm43 2h-1v-1h1zm-55-2v1h-2v-1h1zm53-1h-1v-1h1zm0-2h-1v-1h1zm-7-1h-1v-1h1zm-46-16v9l-2-1v-2-9-1-1l1-3h1v7zm54 8h-1v-1h1zm-43-3h-1v-1h1zm0-4v2h-1v-3h1zm37 1h-1v-1h1zm5-1h-1v-1h1zm-41-3v2h-1v-1-1-2zm-2 1v1h-1v-1l1-3v2zm44 0h-1v-1h1zm-38-8v5h-1v-5zm29 3h-1v-1h1zm-32-8v8h-1v-8zm-4 5v3h-1v-3zm7-2v1h-1v-4h1v1 1zm-8-2v3h-1v-2-1zm-8 0v2h-1v-2zm45 1h-1v-1h1zm14-1h-1v-1h1zm-52 0h-1v-1h1zm9-2h-1v-1h1zm25-3h-1v-1h1zm-25 0h-1v-1h1zm23-2h-1v-1h1zm-1-1h-1v-1h1zm5-5h-1v-1h1zm-13-1h-1v-1h1zm-12-2h-1v-1h1zm3-3h-1v-1h1zm-2-9l-1 1h-1v-1-1h1 1zm0-5h-1v-1h1z"/>
		<path id="Path 9" class="s9" d="m20 181h-1v-1h1zm0-2h-1v-1h1zm-1-61h-1v-1h1zm29-3h-1v-1h1zm-46-40h-1v-1h1zm16-4h-1v-1h1zm2-6v2h-1v-2zm1-25h-1v-1h1z"/>
		<path id="Path 10" class="s10" d="m20 207v1h-1v-1-4h1zm-17-5v2h-1v-6h1v1 1 1zm17-8v7h-1v-7zm-5 5l-1 1h-1v-4l1-12 1-1v-8-2h1v2 1 9l-1 1zm-10-16l-2 14h-1v-3l-1-11v-2l1-7v-1-16h1v1 3 5 7 2l2 6zm15-2v9h-1v-9zm41-3h-1v-1h1zm-41-12v12h-1v-12-3-8-1h1v10zm37 7h-1v-1h1zm-40-4v2h-1v-5h1zm30-10l1 1h-2v-1zm-28-5h-1v-1h1zm-1-9h-1v-1h1zm-15-1h-1v-1h1zm1-2h-1v-1h1zm15-3h-1v-1h1zm-15-1v1l-2-1zm15-6v5h-1v-5zm-15 3v2h-2v-1l1-1zm15-8v2h-1v-1-1zm-1-8h-1v-1h1zm1-16v10h-2v-2-3-1-2-1-1-3-1l1-3v-1-1-2-1-1h1 1 1v1l-2 10zm-15 4v5l-1-2v-1-1-1zm33-3h-1v-1h1zm-1-3h-1v-1h1zm-9-4v1h-3v-1h2zm-3-4h-1v-1h1zm-7-1v1h-1v-2h1zm-9 1h-1v-1h1zm15-2h-1v-1h1zm-10 0h-1v-1h1zm8-3v1h-1-1-1v-1h1zm4 0h-1v-1h1zm2-1h-1v-1h1zm-23 0h-1v-1h1zm15-5v2h-1v-2zm29-1h-1v-1h1zm-7-2v2h-1v-6h1v1zm6 0h-1v-1h1zm-6-5h-1v-1h1zm-22 0h-1v-1h1zm-15-2v1h-2v-1zm0-5v4h-1l-1-1v-2zm12-13v16h-1v-13-1l-1-1v-1h1zm32 13v2h-1v-2zm-2-1h-1v-1h1zm-26-4h-1v-1h1zm-16-1l-2 1v-3l2 1zm16-11v5h-1v-5zm-4 2h-1v-1h1zm4-5v2h-1v-2zm0-5h-1v-1h1zm-8-4h-1v-1h1zm8-1h-1v-1h1zm35-6h-1v-1h1zm-1-1h-1v-1h1zm-13-1h-1v-1h1zm9-2h-1v-1h1zm-2-1h-1v-1h1zm-11 0h-1v-1h1zm8-2h-1v-1h1zm-9-5h-1v-1h1z"/>
		<path id="Path 11" fill-rule="evenodd" class="s11" d="m18 253h-1v-1h1zm-4 0h-1v-1h1zm6-1h-1v-1h1zm-8 0h-1v-1h1zm9-1h-1v-1h1zm1-1h-1v-1h1zm-13-1h-1v-1h1zm14-1h-1v-1h1zm-16-1h-1v-1h1zm-2 0h-1v-1h1zm17-4l-1 3v-1-1-1zm-18 1v2h-1v-2zm20 0h-1v-1h1zm-4-1h-1v-1h1zm9-3h-1v-1h1zm2-1h-1v-1h1zm3-1h-1v-1h1zm2-1h-1v-1h1zm-17-3v3h-1l-1-4v-1h3l-1 1zm19 2h-1v-1h1zm-23-1v1l-1-2h1zm-7 0l-2 1v-2h1zm-6-1l1 2h-1zm38 1h-1v-1h1zm-9 0h-1v-1h1zm11-1h-1v-1h1zm-21 0h-1v-1h1zm23-1h-1v-1h1zm-28-1v1h-1-1-1zm29 0h-1v-1h1zm-9 0h-1v-1h1zm-28-1l-1 1v-3l2 1zm39 0h-1v-1h1zm2-1h-1v-1h1zm2-2v1h-2zm-34-1v2h-1v-4l1 1zm36 0v1h-2zm-46 1h-1v-1h1zm47-1h-1v-1h1zm-48-1h-1v-1h1zm-2-5l-2 5v-5h1zm53 4h-1v-1h1zm-52 0h-1v-1h1zm53-1h-1v-1h1zm-42 0h-1v-1h1zm-5-1h-1v-1h1zm54-3v1h-3v-1h1 1zm-17 1h-1v-1h1zm-35 0h-1v-1h1zm-6 0h-1v-1h1zm60-1h-1v-1h1zm1-1h-1v-1h1zm2-1h-1v-1h1zm-54 0h-1v-1h1zm-5 0h-1v-1h1zm-8 0h-1v-1h1zm8-2h-1v-1h1zm5-3v2h-1v-2zm57 1h-1v-1h1zm-62 0h-1v-1h1zm64-2l-1 1h-1v-1-1h2zm-72-2v3h-1v-3zm73-1v2h-1v-2zm-60 2h-1v-1h1zm-1-1h-1v-1h1zm-3-1h-1v-1h1zm39-4v2h-1v-2zm21 1h-1v-1h1zm-22-3h-1v-1h1zm-2-4h-1v-1h1zm-44-1v1h-1v-1-1h1zm42-2h-1v-1h1zm-2-2h-1v-1h1zm-2-1h-1v-1h1zm-1-1h-1v-1h1zm-1-2h-1v-1h1zm21-2h-1v-1h1zm-18-4h-1v-1h1zm7-2h-1v-1h1zm7-1h-1v-1h1zm7-2h-1v-1h1zm1-1h-1v-1h1zm4-2v1h-1-1v-1zm-10 1h-1v-1h1zm-9 0h-1v-1h1zm10-1h-1v-1h1zm-3-2h-1v-1h1zm4-1h-1v-1h1zm-18-5v2h-1v-2zm6 1h-1v-1h1zm-1-1h-1v-1h1zm1-3h-1v-1h1zm-2 0h-1v-1h1zm21-3v1h-2-1v-1h1 1zm-26-1v2h-1v-2zm21 1h-1v-1h1zm-3 0h-1v-1h1zm-5-4h-1v-1h1zm1-1h-1v-1h1zm-15-1v1h-1v-2-1l1 1zm16-3v2h-1v-2zm-39 2h-1v-1h1zm14-2v1h-4-1v-1zm-9 1h-1v-1h1zm19-2l-3 1v-1zm-4 0v1h-1v-1l1-1zm-21 1h-1v-1h1zm18-1h-1v-1h1zm-4-1v1h-3v-1zm-11-4v3h-1v-1-2zm-2 2v1h-1v-5h1zm-8 1h-1v-1h1zm32-1h-1v-1h1zm-9 0h-1v-1h1zm19-1h-1v-1h1zm6-1h-1v-1h1zm-14-1h-1v-1h1zm-9-1h-1v-1h1zm-15-5v4h-1v-2-1-1zm-2 2v2h-1v-2zm12-1v2h-1v-2zm-27 1h-1v-1h1zm15-3v2h-1v-2zm-14-2v1h-2v-1zm29-1h-1v-1h1zm23-1h-1v-1h1zm-22 0h-1v-1h1zm2-1h-1v-1h1zm19-1h-1v-1h1zm-13-2h-1v-1h1zm12-4v2l-1-2zm-12-2h-1v-1h1zm-1-3h-1v-1h1zm12-3v2h-1v-2zm-13-1h-1v-1h1zm12-2h-1v-1h1zm-13-3h-1v-1h1zm12-2h-1v-1h1zm-13-2h-1v-1h1zm12-2h-1v-1h1zm1-19v3h-1v-3zm-37 3h-1v-1h1zm33-1h-1v-1h1zm-2-1h-1v-1h1zm-11-1h-1v-1h1zm-23-1v1h-2v-1zm29-2h-1v-1h1zm-11 0h-1v-1h1zm23-2h-1v-1h1zm-4 0h-1v-1h1zm5-3h-1v-1h1zm1-2h-1v-1h1zm1-1h-1v-1h1zm-5 0h-1v-1h1zm-2-2h-1v-1h1zm-7 0h-1v-1h1zm11-1h-1v-1h1zm1-1h-1v-1h1zm-12-1v1h-1v-2h1zm20-1h-1v-1h1zm-14 0h-1v-1h1zm-5-1h-1v-1h1zm21-1h-1v-1h1zm1-1h-1v-1h1zm-20 0h-1v-1h1zm1-1h-1v-1h1zm20-1h-1v-1h1zm3-5h-1v-1h1zm-18-2h-1v-1h1zm9-1h-1v-1h1zm-8-1h-1v-1h1zm19-1h-1v-1h1zm6-3h-1v-1h1zm0-5h-1v-1h1zm-26-3h-1v-1h1zm-2-1h-1v-1h1zm-44-4v3h-1v-3zm67 2h-1v-1h1zm-23-1h-1v-1h1zm-36-5v1h-1-1v-1zm2 0h-1v-1h1zm6-3v2h-1v-2zm-7 2h-1v-1h1zm4-1h-1v-1h1zm1-1h-1v-1h1zm-14 0h-1v-1h1zm16-1h-1v-1h1zm-12 0h-1v-1h1zm4-2h-1v-1h1zm-7-1v1l-1-2h1zm16 0h-1v-1h1zm-2-2v2h-2v-3h1zm-7-2v3l-1-3zm10 2h-1v-1h1zm-3-1h-1v-1h1zm4-1h-1v-1h1zm-5 0h-1v-1h1zm2-2v1h-1l-2-1v-1l1-1 2-4v5zm-4 0v1h-3v-1zm-7-1v2h-1v-2-1h1zm24 1h-1v-1h1zm-11 0h-1v-1h1zm2-1h-1v-1h1zm16-1h-1v-1h1zm-31-1l-1 1h-1v-2h2zm19 0h-1v-1h1zm-12-1v1h-1l1-2zm-11-1v2h-1zm21 1h-1v-1h1zm7-2h-1v-1h1zm-11 0h-1v-1h1zm9-1h-1v-1h1zm-5-2h-1v-1h1zm-3-3v1h-1v-1l1-1zm-18 0h-1v-1h1zm20-1h-1v-1h1zm-1-3h-1v-1h1zm-5-5h-1v-1h1z"/>
		<path id="Path 12" class="s12" d="m50 109h-1v-1h1zm-12-14l-1 2h-1v-1-2-1h1 1zm-18-19h-1v-1h1z"/>
		<path id="Path 13" class="s13" d="m50 116l-1 9v-2-1-1-1l-1-1v-1-2-1-1h1l1 1zm2 0v2l-1-2zm-5 0v2h-1v-1-1zm4-2v1h-1l-1-1 1-2h1zm-3-4v3h-1v-1l-1-1v-1-1-1-1zm-2 3h-1v-1h1zm4-3v1l-1-1v-1h1zm-1-1h-1v-1h1zm1-1h-1v-1h1zm-1-3v1h-3-1v-1-2l4-1v1zm-5-3h-1v-1h1zm-5-5v2h-1v-1-2h1zm-2 1h-1v-1h1zm3-2h-1v-1h1zm-2-3h-1v-1h1zm13-8h-1v-1h1z"/>
		<path id="Path 14" fill-rule="evenodd" class="s14" d="m64 218v2h-1v-2zm2 1h-1v-1h1zm-4-41h-1v-1h1zm-13-5l-1 1h-1l-1-1 3-1zm4-4l-1 1h-1v-1h1zm7-5h-1v-1h1zm-2-1h-1v-1h1zm-11-4h-1v-1h1zm0-4l-1 2v-2zm-4 2h-1v-1h1zm-3-23v1h-4v-1h1 1zm6-11l-1 4-1-3-3-2v-1l-1-2v-1-1l-1-2v-1-2h-1v-1-2-1-1-1-1-2h-1v-1-1l3-1v-1l1-1 2 3v1h1 1v1 2 1 1 1l1 1v1l-1 1v1 1 1 1l1 2v1 2zm3 0h-1v-1h1zm-1-4v1h-1v-2h1zm0-5h-1v-1h1zm-10-7h-1v-1h1zm0-2h-1v-1h1zm9-5v1h-2zm-19-6l-1 3h-1v-1l1-1zm13 0h-1v-1h1zm6-1h-1v-1h1zm-6-1l2 1h-2zm0 0h-1v-1h1zm-3 0h-1v-1h1zm6-20h-1v-1h1zm13-8v2h-1v-1-1zm4-6l1 3-1-1zm0 3h-1v-1h1zm14-12h-1v-1h1zm-12-10h-1v-1h1zm-1-1h-1v-1h1zm-15-12h-1v-1h1zm-1-1h-1v-1h1zm-2 0h-1v-1h1zm-4 0h-1v-1h1zm3-2v1h-1v-2h1zm-2 1h-1v-1h1zm-1-3v1h-1-1v-1h1zm-2-1v1l-2-1 1-1h1zm-8-2h-1v-1h1zm-2-1h-1v-1h1zm-2-1h-1v-1h1zm-11-9l-1 1h-1l-1-1h-1l1-2 2-2 1 1 1-1h1v1 2l-1 1z"/>
		<path id="Path 15" fill-rule="evenodd" class="s15" d="m18 252l-1 1h-3l-1-1h-1l-1-1h-1l-1-1v-1l-1-1h-1v-1l-1-1h-1-1v-2-1-2l-1-1v-3-1l-1-2v-8l2-5 1-1h1v1 3h-1-1v1 1 9 2h1l1-1 2-1v-1l1-1v-2-1l-2-1v-1l-1-1v-1-1-1l1-2 1-1v-1l1-1v-1h1 1 1l1 1h1l1 1 1 1 1 1 1 1 1 1v1l1 1v1l1 1v1h-1-1l-1-2-1-1-1-1v-1l-1-1-1-1-1-1-1-1h-1-1v2 1l1 1v5 1l1 1h4l2-2h1l1 1h1l1 1v1h-1-1-3-1l-3 1 1 1 1 2 1 1 1 2 1 1 2-1h1l1-2h1 2 1l1-1h1l1-1h1v2l-1 1h-2l-1 1h-1l-3 2v1h-1-2v1 1l1 1 1 1 1-3v-1h1v1 1 1 2l-1 1v1l-1 1-1 1-1 1zm12-13h-1v-1h1zm-11 0h-1v-1h1zm13-1h-1v-1h1zm-14-1v1l-2-1v-1l1-1v-2zm17 0h-1v-1h1zm2-2v1h-1-1v-1zm-5-1v2h-1v-1-1zm-9 0v2h-1-1v-1-1-1h1zm-7 2h-1v-1h1zm22-1h-1v-1h1zm-4-2v2h-1l-1-1v-1h1zm35-16v1h-1-1v-1zm-4 0v1h-1v-1l1-1zm6-2l-4 2h-1v-1l1-4-5-14v-4l-3-4 2-1h1l1 1 1 1v1 1l1 1v2l1 1v2l1 1v1l1 1v2l1 1 1 1h1 1 1 1v1l1 1v1 2h-2l-1 1v1 1zm0 2h-1v-1h1zm1-1h-1v-1h1zm-13-30l-3 1-2-6-1-1 1-3h1l1-1v-1h1v1 1l1 1v1h-1-1v2h1v1l1 1v1l1 1zm-13 0l-2-2v-1l1-7 1-2h1 1v1 1 1 4 1 1 1zm17-7h-1v-1h1zm-2 0h-1v-1h1zm-2-1h-1v-1h1zm8-2v1h-2-1v-1l1-2zm-4 1h-1v-1h1zm-2 0h-1v-1h1zm3-1h-1v-1h1zm-2 0h-1v-1h1zm-8-1v1h-2v-1zm1-1v1h-1v-2h1zm-3 1h-1v-1h1zm9-4h-1v-1h1zm-3-1l1 1h-1-1v-1zm-1 0l-1 1h-1v-2l1-2h1v1 1zm-6 1h-1v-1h1zm3-2h-1v-1h1zm-7-1v1h-1v-1-2h1v1zm12-2l-1 1h-1v-1-1h1 1zm-16-2l2 3h-1l-1-1zm13 0v1h-1l-1-1zm2-1v1h-1-1v-1h1zm-10 0v1h-1l1-2zm-3-3l-2 4h-1v-1-2-1l2-1h1zm17 2v1h-1l-1-1v-1h2zm-3 1h-1v-1h1zm-3 0h-1v-1h1zm-2-2v2h-1zm-3-1l-1 3v-3zm-7-1h-1v-1h1zm1-1h-1v-1h1zm-3-1v1h-1v-1-1h1zm3-1l-1 1h-1v-1-1h-2l-1-1h-2-4v-1h3 1 1l3-1v-1h1l2 1v3zm4-3v3l-1-1v-1-1zm3-1l-1 1h-1l-1-1v-1h1l1-1 1-1h1zm-4 1h-1v-1h1zm-15-1v1h-1-5l1-1h3 1zm3 0h-1v-1h1zm-3-3l1 2h-1l-1-1v-1zm-22 2h-1v-1h1zm26-4h-3v-1h1zm17-2l-1 4v-3-1zm-11 2h-1v-1h1zm15-1h-1v-1h1zm-6-1v1h-1-1v-1zm-9 0l2 1h-1zm-11 0l-1 1h-1v-1-2-2-1l1-1v-1l1-1v-1h1l1 1v1l2 2 2 2-1 1-1 1h-1zm6-2l-1 1v-1zm20-2l-1 4h-1v-1-1l-3-1-2-2 3-2v-2h1 1l1 2v1l-1 1 1-1h1zm-5 4h-1v-1h1zm-19 0h-1v-1h1zm24-7h-1v-1h1zm-17-3v1l-5-1h4zm14-1v1h-1-3l2-2h1 1zm-11 0v1l-3-1h-1v-1h1 1 1zm3-1v1h-3v-1h1zm-9 1h-1v-1h1zm11-2l-1 1h-1v-5h1 1zm-9 1h-1v-1h1zm4-4v2h-1l-1-1v-1zm1 0h-1v-1h1zm4-2h-1v-1h1zm-1-6v1h-1-1v-2h1zm3-9h-1v-1h1zm-5 0h-1v-1h1zm0-5h-1v-1h1zm4-5h-1v-1h1zm-10-2h-1v-1h1zm-1-4h-1v-1h1zm1-2v1h-1v-2h1zm6-1v1l-3-1h1 1zm-11 1h-1v-1h1zm-2 0h-1v-1h1zm-6-1v1h-1l-1-1zm12 0h-1v-1h1zm-5 0h-1v-1h1zm0-2l-1 1h-1l-1-2h2 1zm16-3l-2 3h-1v-1-1-1-1h1 2zm-39 3h-1v-1h1zm24-2v1h-1v-2h1zm-8 1h-1v-1h1zm-6 0h-1v-1h1zm-2 0h-1v-1h1zm9-3v1h-1v-1-1-1h1 1v1zm-23 1h-1v-1h1zm38-3l-1 2h-1l-1-3v-1h1l2 1zm5 1h-1v-1h1zm3-4v1h-3v-1-1h1 1zm1 0h-1v-1h1zm-8-2v2h-3v-1h1zm7-1v2h-1v-1-1zm2-1l-1 1h-1l-1-1v-1l3-1v1zm-10-1l-1 2h-1v-3h1 1zm12-2v1h-1v-1l1-1zm-13 0h-1v-1h1zm17-3h-1v-1h1zm-13-1v1h-1v-1-1h1zm15-1l-1 1h-1v-2l1-1v-1l1-1 2 1v1l-1 1v1zm-17 1h-1v-1h1zm20-5v1h-1v-2h1zm1-1h-1v-1h1zm-2 0h-1v-1h1zm1-3v2h-1v-1-1zm3 0h-1v-1h1zm1-2h-1v-1h1zm1-3v1h-1l1-2zm1-3v1h-1-2zm5-1v1h-5v-1l2-1zm1-1h-1v-1h1zm1-3v2h-1l-2-2h1 1zm-3-2l-6 1 5-2h1zm0-2h-1v-1h1zm-20-1v1h-1-1v-1l1-1zm18-2v1l-2-1h1zm-22 0h-1v-1h1zm11-1h-1v-1h1zm-10 0h-1v-1h1zm0-6v1h-2v-1l1-1zm-38 0v1h-1-2l-1-1v-3l-1-1h-1-1v-1-1-2l1-1 1-1v-1h1l1-2-1-1v-1-1l-2-1v-1l-1-1h-1v1 1l-1 2v8l1 2 1 1v1 1h-2l-1-1v-4-6-1-5l1-1v-1-2l1-1-1-1v-2l1-1h2l1-1 1-1v-1l1-1 1-1h2l1-1h2v1 1h-1-1l-2 2-1 2 1 1h1 1l1-1h1l1-1h1v1l1 2h1v1l1 1v1l-3 3-1 1v1l-1 1-1 2h-1v1l3 1v1h-1-3l-1 1-1 1 1 3v1l-1 1v1 3l1 1zm-4-22h-1v1h1zm7 21l-1 1h-1v-1-1h1 1zm38-1v1l-1-2h1zm-6 1h-1v-1h1zm-1-2h-1v-1h1zm-30 0h-1v-1h1zm36-1h-1v-1h1zm-33-2v2h-1v-2zm22-2l-1 1h-1v-1l1-1h1zm-3-2v2h-1v-1-1zm-18 2h-1v-1h1zm22-1h-1v-1h1zm-23 0h-1v-1h1zm22-2v1l-1-1-1-1v-1h1 1zm-4 0v1h-1-1v-1-2zm-15 0l-1 1h-1v-1-1h1 1zm21 0h-1v-1h1zm-27-1l2 1h-1-1zm16-2v1h-1-1v-1zm-9 0l-1 1h-1v-1-1h1 1zm15 0h-1v-1h1zm-2-2l-1 1h-1v-1h1zm-2-1v1l-2-1h1zm-2-1v1h-1-1v-1h1zm-2-1v1h-1-1v-1h1zm-2-1v1h-1-1v-1h1zm-3 0h-1v-1h1zm-3-1h-1v-1h1zm-1-1h-1v-1h1zm3-2h-1v-1h1zm-1-4v2h-1v-2zm-2 2h-1v-1h1zm-4-7v2h-1v-1-1-1h1z"/>
		<path id="Path 16" fill-rule="evenodd" class="s16" d="m25 241l-1 2h-1v-1l-1-1 3-2zm-3 2h-1v-1h1zm-3-1h2-1zm9-3v1h-2v-1l1-1zm-8 0l-2 1v-1h1zm2-2l-1 2v-1-2h1zm-4 1v1h-1l-1-2zm15 0h-1v-1h1zm-2-1v1h-1v-1-2h1v1zm-12 1h-1v-1h1zm15-1h-1v-1h1zm-1-2v1h-1v-2zm7-1l-1 1h-1v-1-1l2-1-2 1-1 1-2 1h-1v-2-1h1 1l1-1 1-1v-1h1l1-1 1-1h1l1-1 1-1 1-1 1-1 1-1 1-1-1-1-1-1v-4h1 1l1-1 2-6v-1-2h-1v-2l-1-1v-1l-1-1v-1-1h-1l-1-1v-1l-1-1-1-1-1-1h-1l-1-1-1-1v-1l-1-1v-2h1l1-1 1-1v-1h1 1l2 2 2-2v-1l1-1h1v-1-4l-1-1-1-1v-1l1-1v-1h1l1 3 1 1h2 1 1l-1 1h-1l-1 3 1 1 2 6 3-1h1v1 1l1 1-2 1 3 4v4l-1 1-1 1h-1 1l1-1 1-1 5 14-1 4h-1l-1 1-1 1-2 2h-1v-1h-1v1h1v1 1h-1l-2 1v1l-1 1-1 1h-1l-1 1-2 1-2 1-1 1h-1l-1 1h-1l-1 1-1 1h-1l-1 1zm19-27l-1-1-1-2-1 4 1 3h1l1-1zm-4-15l-1-1-1-1-2-1-1 2v1l1 1 1 1h3v-1zm-34 41h-1v-1h1zm-3-6l1 2h-1zm-12-2h-1v-1h1zm53-2h-1v-1h1zm3-2h-1v-1h1zm4-1h-1v-1h1zm1-1h-1v-1h1zm-1-1h-1v-1h1zm5-2l-1 1h-1-2l4-2zm1-1h-1v-1h1zm1-2h-1v-1h1zm-28-37l-1 7h-1v-1-11-1-2l1-1h1v1 1 4h1v1zm18 2h-1v-1h1zm-3 0h-1v-1h1zm2-1h-1v-1h1zm-4 0h-1v-1h1zm5-1h-1v-1h1zm-2-1h-1v-1h1zm-4 0h-1v-1h1zm-1-1h-1v-1h1zm-1-2l-1 1h-3v-1l1-1v-1l1-1h1l1 2zm9-1v1h-3-1-1v-1h1 1zm-6 0v1h-1-1v-1h1zm-7 1h-1v-1h1zm10-2h-1v-1h1zm-3 0h-1v-1h1zm6-1h-1v-1h1zm-2 0h-1v-1h1zm-6-2l-1 2h-1v-1l1-3h1 1v1zm-3 2h-1v-1h1zm-2-1v1h-2v-1-2-1-1h1 1 1l-1 2zm-3 1h-1v-1h1zm10-1h-1v-1h1zm-15-1v1h-1v-4h1v2zm16 0h-1v-1h1zm2-2v1h-1-1v-1zm-14 1h-1v-1h1zm15-2h-1v-1h1zm-3 0h-1v-1h1zm-3-1v1h-2-2l1-1h1 1zm-7 1h-1v-1h1zm-7-4v1h-1v-3h1 1v1zm9 0h-1v-1h1zm-5-2v1h-1v-1-1h1zm-2 0h-1v-1h1zm1-1h-1v-1h1zm-2-2v1h-1-1v-1zm4-1v1h-1-1v-3h2v1zm5-2v2h-1v-1zm-30 1v1h-2zm-4 0v1h-1v-1l-1-1h-1-2l-2-1v-1h1 3 1 1 1zm31-1l1 1h-1-1v-1zm-15 1h-1v-1h1zm-6-1l-1 1h-4l1-2h3 1zm-18-1h-1v-1h1zm42-2h-1v-1h1zm0-2h-1v-1h1zm1-1h-1v-1h1zm-3-1v1h-1-1l1-1zm5 0h-1v-1h1zm1-1h-1v-1h1zm-3 0h-1v-1h1zm-16 0h-1v-1h1zm18-8h-1v-1h1zm-9-1v1h-5v-1-1l3 1zm2-1h-1v-1h1zm1-1h-1v-1h1zm-4-1v1h-1-1-1v-1l1-1h1zm-4-1v2h-1v-1-1zm4-1v1h-1v-2h1zm-2 1h-1v-1h1zm1-3v1h-2v-1zm5 0h-1v-1h1zm-4 0h-1v-1h1zm-1-4v3l-2-1v-1zm-2 0h-1v-1h1zm5-1h-1v-1h1zm2-2h-1v-1h1zm-2-6v1h-1l-1-1v-1h1 1zm0-2h-1v-1h1zm-1-5h-1v-1h1zm-8-4h-1v-1h1zm9-3l-2 1h-1v-1h1zm-10 1h-1v-1h1zm10-8h-1v-1h1zm-13 0h-1v-1h1zm6-1h-1v-1h1zm-7 0h-1v-1h1zm-26-1l-1 1h-1v-2h2zm41 0h-1v-1h1zm-14 0h-1v-1h1zm-22 0h-1v-1h1zm-2 0h-1v-1h1zm25-1h-1v-1h1zm-31-2l1 2h-3-1v-3h1zm14 0v1h-4-1-1v-1zm-9 1h-1v-1h1zm23-2l-1 1v-1-1h1zm-26 0l-2 1v-1h1zm36-1h-2 1zm-38 0v1h-2v-1h1zm44 0h-1v-1h1zm-4-1v1h-2l1-2zm-14 0l-1 1v-1-1h1zm10 0h-1v-1h1zm4-4v2h-1l-2-1v-1zm0-2l-2 1v-2l1-2h1v2zm6 0h-1v-1h1zm4-4h-1v-1h1zm-6 0h-1v-1h1zm-6 0h-1v-1h1zm14-2v1h-1v-1-1zm-13-1v2h-1l-1-1v-1-1h1zm-39 0v2h-2v-1-1zm51-2v2h-2v-1l1-1zm-10 1h-1v-1h1zm15 0h-1v-1h1zm-4-1h-1v-1h1zm-12-2l2 1h-1-1zm0 0l-1 1h-1v-1-1h1 1zm19-4v2l-2-1 1-1zm-6 2h-1v-1h1zm-8-1l-1 1h-1-2v-1h1zm7 0h-1v-1h1zm8-1h-1v-1h1zm2-2v1h-1-1v-2l1-2 1-2 1-3h2v1l-1 2v1l-1 1v1l-1 1zm-3 1h-1v-1h1zm0-2l-1 1-1-2h1l-1-3h-2v-1-1l1-1v-1l1-1v-2-1l-1-1-1-1h-1v1h-1v1 1l-1 1v4 1 1 1 1l-1 1-1-1-1-1h-1l-1-2v-1-1-1l1-1v-1-2h2v-1h-2v-1l1-3h1 1l-1-1-1-1v-1h1v-1h-1v1h-1l-1-1v-1l1-1h-1-1l-1-1v-1l2-1v-1l3 2 3 1v2l3 1h1l1 1v1 1l1 1-1-1v-1-1-1-1h2l-1-1v-1h4v1l-1 1v1l2-1h1l1 1v1l2 1 1 1v1 1l-5 2 6-1h1v1l-1 1 2 2-1 1v1l-3-1h-2v1 1l-3 1-1 3-1 2-1 2zm-4-3h-1v-1h1zm-8-2v2h-1v-1-1zm21-5l-2 1v-1zm4-3h-1v-1h1zm-24-5v1h-2l-1-1 1-2v-1h1l1 1v1zm16-4h-1v-1h1zm-6-1v1h-1v-2h1zm-12 0v1h-2v-1h1zm7-4v1l-3-2v-1h2zm-47 1h-1v-1h1zm40-2l-1 1h-1v-1-1zm-3 0h-1v-1h1zm10-1h-1v-1h1zm-9 0h-1v-1h1zm-31 0h-1v-1h1zm37-2v1h-1-1v-1h1zm-8 0v1h-1-1l-1-1-1-1-1-1v-1l1-1zm-27 0v1h-1-1v-1-2h2zm-10 1h-1v-1h1zm43-1h-1v-1h1zm-32-3v1h-1v-2-1h1v1zm29-1l-1 1h-1l-1-1 1-1h1zm-3-1v1l-3-1v-1h1 1 1zm-5 0l-1 1h-1v-2h1zm-3 0h-1v-1h1zm-17-1v1h-1l-1-1h-1v-1h1 1 1zm22 0h-1v-1h1zm-4 0h-1v-1h1zm-27 0h-1v-1h1zm24-3v2h-1-1v-1l1-1zm-19 2h-1v-1h1zm-4 0h-1v-1h1zm21-2v1h-1v-1-1h1zm-24 0h-1v-1h1zm21-3l2 2h-2-1-1l-1-1v-1l1-1h1 1zm-11-2l-2 4v-2-1-2-1l3-3v1l1 1h1 1l1 2 1 1h1 1v1 1h-1-1l-1-1h-1-1v2h-1v-3l-1-1zm-3 1v1h-1v-1l1-1zm-10 0l2 1h-2zm27 0h-1v-1h1zm-2-1h-1v-1h1zm-2-1h-1v-1h1zm-12 0h-1v-1h1zm10-1h-1v-1h1zm-3-4v1h-1-1v-1h1zm-3 1h-1v-1h1zm1-5v2h-1l-1-1-1 1h-1l-1-2 4-2h1v1zm-11 1l-1-1h1z"/>
		<path id="Path 17" fill-rule="evenodd" class="s17" d="m26 240v1h-1v-2h1zm3-2v1h-1l-1-1zm1 0h-1v-1h1zm3-2v1h-1-1v-1h1zm2-1v1h-1-1v-1h1zm2-1v1h-2zm1 0h-1v-1h1zm21-12l-1 1h-1zm2-1h-1v-1h1zm4-2v1h-1v-2h1zm-2-1v2h-1-1zm-3 2h-1v-1h1zm7-2h-1v-1h1zm-3 0h-1v-1h1zm2-1h-1v-1h1zm7-5h-1v-1h1zm-29-28h-1v-1h1zm12-9v1h-1v-1-1h1zm-5-1v1l-1-3h1v1zm-4 0h-1v-1h1zm8-1h-1v-1h1zm-6-1l-3 1h-1v-3l1-1h1 1 1 2v1l-1 1v1zm10 0h-1v-1h1zm1-2v1h-1l-1-1v-1-1l1-1v-1h1l1 2v1zm-5-1v2l-1-2zm-3 2h-1v-1h1zm11-2h-1v-1h1zm-11 0h-1v-1h1zm-6 0h-1v-1h1zm15-5v1h-2-1v-1h1 1zm-4 1h-1v-1h1zm-7-2v1h-1l-1-1v-1-2l-1-1-1-1v-1l1-2h1v1l1 1 1 2v1zm7 0h-1v-1h1zm-11-3h-1v-1h1zm5-5v4h-1l-1-2v-1-3h1 1v1zm-8 3h-1v-1h1zm3-3v2h-1v-1-1zm2-1h-1v-1h1zm-14-1v1h-2v-1h1zm3-1v1h-3v-1h1 1zm-18-2v3h-1v-3zm-8 1l2 1h-3v-1zm45-6h-1v-1h1zm0-2l-1 1h-1-1l-1-1v-1h1zm-18 0h-1v-1h1zm3-8h-1v-1h1zm8-1h-1v-1h1zm-2-6v5h-2v-1-1-1-1-1-1l1-4h1v1 1zm-5 4v1h-1v-2h1zm-23-3v3h-1v-2-1zm25-2v1h-2v-2zm0-3l1 3h-1zm5 1v1h-1v-1-1-1h1zm-5-1l-2 1v-1l-1-1v-1zm5-2h-1v-1h1zm-9-3l1 2h-1zm8-3v2h-1v-2zm-2 0v1l-1-2zm-7-1l1 2h-1zm8-1h-1v-1h1zm-8-2v2-1zm7-1h-1v-1h1zm-8-2v2-1zm0-1h-1v-1h1zm0-2h-1v-1h1zm0-3v2-1zm-1 0h-1v-1h1zm10-3l-2 1h-1-1l-2-3-1 1h-1v-2l1-1v-1-1h1v-1h2l3 1h1zm-7 0l-3 1h-1l-1-1v-1l1-1h1 1v1l1 1zm-4-3v1h-1-1-1-1-1-4v-1l1-3h-1v-1l1-2-1-1v-1l1-1 1-1 1-1h1v1 1l-1 4v1l1 1h1 1 1 1v2zm-10-1v1h-2v-3-1l-1-1v-1l-1-1h-1v-1l1-1h1 1 1v2h1l-1 3 1 1v1zm10-3v1h-1l-1-1v-1-1h1l1 1zm12 0h-1v-1h1zm-1-1l-1 1h-1-1-1l-2-1v-1h-1v1h-1l-1-1-1 1h-1l-1-1v-1l1-1h1l1-1v-1-1h1 1v1h2 2v1 1h1l1 1h1v1zm-6 1h-1v-1h1zm-34 0h-1v-1h1zm-2-2v2h-1-2v-1-1zm4 0v1h-1-1v-1l1-1h1zm3-1v1h-1l-1-1 1-2h1v1zm-4 0l-1 1h-2l-1-2 2-1 1-1h1l1 1v1zm25-2v2h-2v-1l1-1zm-13 2h-1v-1h1zm-16-1l-2-1h2zm47-3v2h-1v-1zm-7-2v2l-1-1v-1zm4-1v2h-1v-2zm-7-1v1h-1v-2h1zm8-2v1h-1l-1-1v-1l-1-1v-1l1-1h1l1 1h1v1 1zm4-4l-3 1v-1-1h1l1-1 1-1h2v1l-1 1zm-6 0l-1 1h-1-1-1v-1-1-2-1h1 1 1l1 1v1 1zm11-3l-1 1h-1l-1-1v-2h1l1-1v-1-1-1-1-2h-1v1l-1 1h-5-1-3v-1-1l1-1 1-1v-1l1-1v-1h1 1 1 1l1 1 1 1 1-1h1l1-1h1l1 1v1h1l1 2v1 1l-1 1-1 1v1l-1 1v2l-1 1zm-15-2v1h-1-1v-1l1-1h1zm2 0h-1v-1h1zm2-2v1h-1l-2-1v-1l1-1h2zm-3 1h-1v-1h1zm12-3h-1v-1h1zm-7 0h-1v-1h1zm14-4h-1v-1h1zm-1-2h-1v-1h1zm-1-3v2h-1l-1-1v-1zm-10-1l1 2h-1zm10-7h-1v-1h1zm-7-1v1h-2v-1zm6 0h-1v-1h1zm-7-4l-1 3v-3zm21 1h-1v-1h1zm-24-4l-1 2h-1l-1-1v-2h1l1 1zm3 1h-1v-1h1zm15-3l-2 1 1-1zm-8 1l-3-1v-2h1l1 1 1 1zm-6 1h-1v-1h1zm8-1h-1v-1h1zm-12-1v1h-1-1v-1zm17 0h-1v-1h1zm-4-1l1 1h-2v-1zm-2-1v2h-1l-1-1v-1h-1-1l-3-1-3-2-1-1-2-1-1-1-1-1-4-4v-1h1l3 1 1 1 1 1v-1l1-1h1 1l1 1 1 1v1h-1-1v1l1 1h1l1 2 3 2v-1l-1-2h1 1l1 1h1l1 1 1 1v1zm-10 2h-1v-1h1zm-1-1h-1v-1h1zm1-3l-2 1v-1zm-2 0h-1v-1h1zm-1-1h-1v-1h1zm8-3v1h-2v-1-1h1 1zm-9 0v1h-1-1v-1h1zm7-1h-1v-1h1zm-14-3h-1v-1h1zm2-3v1h-1l-1-1v-1h1zm3 0h-1v-1h1zm-9 0h-1v-1h1zm4-2v1h-1-1l-2-2h-1-1v-1l1-1h1l2 1v1h1 1zm-30-1l-1 2v-2zm31 0h-1v-1h1zm-6-2l-1 1h-1l-2-2 1-1h1l2 1zm-4-2h-1v-1h1zm-2-1v1h-1v-1-1h1zm-11-1v2h-1v-1-1zm9 0v1h-1v-1-1h1zm-2-1v1l-1-2h1zm-4-5h-1v-1h1zm-8-2h-1v-1h1zm5-4v2h-1v-2zm-1-1h-1v-1h1z"/>
		<path id="Path 18" fill-rule="evenodd" class="s18" d="m23 242h-1v-1h1zm0-5h-1v-1h1zm-1-4h-1v-1h1zm-1-3h-1v-1h1zm-14-8l-1 2v-3h1zm-4-24h-1v-1h1zm59-19h-1v-1h1zm-2-1v1h-1-1v-1h1zm4-1v1h-1v-1-1h1zm-4 0h-1v-1h1zm9-14v13h-2l-2-2-1 2-1-1h-1-1v-1-1-1h3v-1h-3v-1l1-1h1 1v-1h-1-1-1l-1-2h1v-1-1h1v-1-1h1 1 1v1h1 2zm-8 13h-1v-1h1zm-6 0h-1v-1h1zm-1-3v2h-2l-1-1v-1zm2-1v1h-1v-1-1h1zm1-1h-1v-1h1zm1-2h-1v-1h1zm-3-4l-1 3h-1-1-1v-2l1-2h2zm-9 1v2h-1v-1l-2-3 2-4h1 2v2l-1 2-1 1zm11 1h-1v-1h1zm-13 0h-1v-1h1zm14-2h-1v-1h1zm3-2v1h-1l-1-1v-1h1zm-8 0l-1 1h-1-1v-1l1-3v-1-4l1-1v-2l1-3 1-4h1 1 1v1 1 1 2l-1 1v2 2 1l-1 1-1 1v1 1 1zm3-1l-1 1h-1v-2h1 4v1h-1-1zm-12-3l-2 1 1-1zm1 0h-1v-1h1zm4-3h-1v-1h1zm-1-1h-1v-1h1zm-26-2l-2 1h-1v-1-3h1 2l1 1h1l-1 2zm16-2l-1 1h-1l-1-1h-1l-1-2v-1l1-1h3l-2-1v-1-1h1 1l1-1v-1l-2-2-2-2v-1-1-1-1h1 1v1l5 1h5v-1h-2v-1h3 1 1v-1-1-4-1-1-1l1-9h1l1 2v1 2h1v1 1 3 1l1 2v3 1h-1l-2 2h3v1 2l-3 2 1 2v1 1 1h-2-1l-1 1h-1-1-1l-2-1v1l-1 1v1l-1 1-1 1-1 1zm11 0v1h-1-1-2l-2-1v-1-1l1-1v-2h1 1 1 1 1v2 1 1zm4-5v3h-1v-1-1-1zm-21 0h-1v-1h1zm26-5v4h-1zm-4 4h-1v-1h1zm-3-5l2 2h-1zm7-1h-1v-1h1zm-1-2v1l-1-2h1zm-1-1h-1v-1h1zm-22 0h-1v-1h1zm6-3v1h-2v-1h1zm-3 1h-1v-1h1zm11-7v1h-1v-3h1v1zm0-4v1h-1v-1-1h1zm1-3h-1v-1h1zm-2-2v2h-1v-2zm1-2h-1v-1h1zm2-4l-1 2h-1v-1-3h1l1 1zm-4 2h-1v-1h1zm1-2h-1v-1h1zm1-3v1l-2-3v-1h3v1 1zm1-7l-4 1v-1l2-1v-1-6l1-1v-1-1l2-3v3l1 1v1 6 1l-1 1zm-11-6v2h-1v-1l1-2zm-2-2v2h-1v-2zm3-1v2h-1v-2zm-12 2h-1v-1h1zm5-2v1h-1l-1-1v-1l1-4v1 1l1 2zm5 0h-1v-1h1zm-9-2l-1 2h-2l1-3h1zm11 1h-1v-1h1zm-28 0h-1v-1h1zm-1-2v1h-1v-1-1-1h2zm24-2v2h-1v-2zm-7 1l-1 1h-1v-2l1-1h1v1zm6-1h-1v-1h1zm-27 0h-1v-1h1zm45-2l-1 1h-2v-1-1-2h3v1h-1v1h1zm-11-2l1 3h-1v-1-1zm-11 3h-1v-1h1zm2-1h-1v-1h1zm21-6v1h-1v-2h1zm-2 1h-1v-1h1zm-8-2v2h-1v-2zm11 0h-1v-1h1zm-2 0h-1v-1h1zm3-2h-1v-1h1zm-11-1h-1v-1h1zm12-31h-1v-1h1zm-41-10h-1v-1h1zm-7-3h-1v-1h1zm14-4h-1v-1h1zm1-2h-1v-1h1zm1-3h-1v-1h1zm1-4v1h-1v-2h1zm3-4h-1v-1h1zm-2-2v1h-1-1l-1-1v-1h1 1zm-1-3v1h-1v-1-1h1zm-3-1h-1v-1h1zm1-4l-4 2v-1-2-2h1 1l1 1 1 1zm-5-3h-1v-1h1z"/>
		<path id="Path 19" class="s0" d="m13 51h-1v-1h1z"/>
		<path id="Path 20" class="s1" d="m69 178h-1v-1h1zm-13-19h-1v-1h1zm-28-4h-1v-1h1zm-19-3h-1v-1h1zm-1-1h-1v-1h1zm2-2h-1v-1h1zm45-71h-1v-1h1zm1-1h-1v-1h1zm3-3h-1v-1h1zm1-1h-1v-1h1zm1-1h-1v-1h1zm1-1h-1v-1h1zm-14 0h-1v-1h1zm15-1h-1v-1h1zm-7-2h-1v-1h1zm-8-23h-1v-1h1zm-1-2v1-4 1zm-37-5h-1v-1h1zm38-2h-1v-1h1zm13-1h-1v-1h1zm-14 0h-1v-1h1zm-4-3h-1v-1h1zm-1-1h-1v-1h1zm-1-1h-1v-1h1zm-1-1h-1v-1h1zm-3-2h-1v-1h1zm-1-1h-1v-1h1zm-3-2h-1v-1h1zm-3-2h-1v-1h1z"/>
		<path id="Path 21" class="s2" d="m45 34h-1v-1h1zm-1-1h-1v-1h1z"/>
		<path id="Path 22" fill-rule="evenodd" class="s3" d="m12 253h-1v-1h1zm9-1h-1v-1h1zm-10 0h-1v-1h1zm11-1h-1v-1h1zm-12 0h-1v-1h1zm-1-1h-1v-1h1zm-1-1h-1v-1h1zm-4-2h-1v-1h1zm-1-3v2-3zm4-3h-1v-1h1zm35-6h-1v-1h1zm7-4h-1v-1h1zm5-3h-1v-1h1zm1-1h-1v-1h1zm3-2h-1v-1h1zm1-1h-1v-1h1zm1-1h-1v-1h1zm-13 0h-1v-1h1zm0-2h-1v-1h1zm21-1h-1v-1h1zm-22-1v1-5zm25-1h-1v-1h1zm1-1h-1v-1h1zm1-1h-1v-1h1zm2-3h-1v-1h1zm1-1h-1v-1h1zm-18 0h-1v-1h1zm1-1h-1v-1h1zm-3-3l1 3-1-2zm4 0l-1 2v-3h1zm-3-4l-1 4h-1v-1-5h1 1v1zm1 1v1l-1-2h1zm-12-8h-1v-1h1zm-1-1h-1v-1h1zm10-2v1h-2-1v-1zm-11 1h-1v-1h1zm8-1h-1v-1h1zm4-1h-1v-1h1zm-5 0h-1v-1h1zm-10 0h-1v-1h1zm10-4l-1 2v-1-1zm2 0v1l-2-1v-1h1 1zm-14 0v1-3zm26-10h-1v-1h1zm-8-22h-1v-1h1zm-26-10h-1v-1h1zm-1-1h-1v-1h1zm34-77h-1v-1h1zm2-3h-1v-1h1zm-56-53v2h-1-1l-1-1v-1-1h1 1 1zm-1 0h-1v1h1zm1-9h-1v-1h1zm1-1h-1v-1h1z"/>
		<path id="Path 23" class="s5" d="m8 239l-1 2-1-1v-1h1zm-2-2h-1v-1h1zm11-1h-1v-1h1zm31-14h-1v-1h1zm-40 0h-1v-1h1zm62-16h-1v-1h1zm-14-4h-1v-1h1zm0-8h-1v-1h1zm-6-2h-1v-1h1zm-14-102h-1v-1h1zm-18-2h-1v-1h1zm-6-53h-1v-1h1z"/>
		<path id="Path 24" class="s6" d="m21 246h-1v-1h1zm-1-1h-1v-1h1zm-11-6v3h-1-2v-1h1l1-2zm-1 0h-1v-1h1zm13-4h-1v-1h1zm-13 0h-1v-1h1zm6-1h-1v-1h1zm26-5h-1v-1h1zm-19-1h-1v-1h1zm-1-2h-1v-1h1zm25-1h-1v-1h1zm-26-1h-1v-1h1zm-4-4h-1v-1h1zm-2-1h-1v-1h1zm43-10h-1v-1h1zm19-1h-1v-1h1zm-62 0h-1v-1h1zm46-2h-1v-1h1zm9-4h-1v-1h1zm-12-1h-1v-1h1zm-1-6l-2 1v-1zm1 0h-1v-1h1zm-4 0h-1v-1h1zm-2-4h-1v-1h1zm4-1h-1v-1h1zm-1-2h-1v-1h1zm-38-4h-1v-1h1zm43-1h-1v-1h1zm-9 0h-1v-1h1zm-5-34h-1v-1h1zm-26-53h-1v-1h1zm-15-1h-1v-1h1zm43-5h-1v-1h1zm-29-44h-1v-1h1zm-4 0h-1v-1h1zm57-5h-1v-1h1zm-55-5h-1v-1h1zm38-7h-1v-1h1zm-46-2h-1v-1h1zm1-1h-1v-1h1zm1-10h-1v-1h1zm2-3h-1v-1h1zm-3-1h-1v-1h1zm-3 0h-1v-1h1zm0-4h-1v-1h1z"/>
		<path id="Path 25" class="s7" d="m3 98h-1v-1h1zm0-50h-1v-1h1z"/>
		<path id="Path 26" class="s8" d="m3 145h-1v-1h1zm0-12h-1v-1h1zm45-70h-1v-1h1zm-29-36h-1v-1h1z"/>
		<path id="Path 27" class="s9" d="m13 6h-1v-1h1z"/>
		<path id="Path 28" class="s10" d="m3 152h-1v-1h1zm0-2h-1v-1h1zm0-9h-1v-1h1zm1-15h-1v-1h1zm14-11h-1v-1h1zm16-17h-1v-1h1zm-2 0h-1v-1h1zm17-21h-1v-1h1zm0-16h-1v-1h1zm-45-10h-1v-1h1z"/>
		<path id="Path 29" class="s11" d="m10 241l-1 1v-3h1v1zm-1-3v1h-1v-1-1zm-2 1h-1v-1h1zm-2-1h-1v-1h1zm22-1h-1v-1h1zm2-1h-1v-1h1zm-6-2h-1v-1h1zm-14 0h-1v-1h1zm29-3h-1v-1h1zm-16 0h-1v-1h1zm-10 0h-1v-1h1zm31-4h-1v-1h1zm1-1h-1v-1h1zm-26-3h-1v-1h1zm-1-1h-1v-1h1zm-1-1h-1v-1h1zm-11 0h-1v-1h1zm6-1h-1v-1h1zm-2 0h-1v-1h1zm40-5h-1v-1h1zm10-3h-1v-1h1zm1-5h-1v-1h1zm9-2h-1v-1h1zm-11-1h-1v-1h1zm-1-2h-1v-1h1zm10-2h-1v-1h1zm-1-3h-1v-1h1zm-13-1h-1v-1h1zm-2-2v1l-1-2h1zm14 0h-1v-1h1zm-15-1h-1v-1h1zm6-1h-1v-1h1zm8-1h-1v-1h1zm-9 0h-1v-1h1zm8-1h-1v-1h1zm-13 0h-1v-1h1zm1-1h-1v-1h1zm1-1h-1v-1h1zm-11-1h-1v-1h1zm1-1h-1v-1h1zm17-1h-1v-1h1zm-8-34h-1v-1h1zm-11 0h-1v-1h1zm-17 0h-1v-1h1zm8-11h-1v-1h1zm1-2h-1v-1h1zm-10-49h-1v-1h1zm32-17h-1v-1h1zm6-16h-1v-1h1zm1-2h-1v-1h1zm12-10h-1v-1h1zm-57-9h-1v-1h1zm43-1h-1v-1h1zm-52-1h-1v-1h1zm-1-2h-1v-1h1zm4-15h-1v-1h1zm-4 0h-1v-1h1zm-2 0h-1v-1h1zm7-2v1h-1v-2h1zm-4-1h-1v-1h1zm2-1h-1v-1h1zm-1-5h-1v-1h1zm1-1h-1v-1h1zm13-2h-1v-1h1zm-8-2h-1v-1h1z"/>
		<path id="Path 30" class="s13" d="m12 248h-1v-1h1zm41-125h-1v-1h1z"/>
		<path id="Path 31" class="s14" d="m16 248v2h-1l-1-1-3-1h1l1-1h1l1 1zm-4-1l-1 1 1-2zm-1-6h-1v-1h1zm3-1h-1v-1h1zm-3-4v3h-1v-1-2zm36-49h-1v-1h1zm4-1h-1v-1h1zm2-1h-1v-1h1zm-4 0h-1v-1h1zm3-1h-1v-1h1zm-9-52h-1v-1h1zm3-2h-1v-1h1zm-1-33h-1v-1h1zm-19-1h-1v-1h1zm22-2h-1v-1h1zm-12-2h-1v-1h1zm-11-1h-1v-1h1zm29-27h-1v-1h1zm6-2h-1v-1h1zm-8-2h-1v-1h1zm16-16h-1v-1h1zm-1-3h-1v-1h1zm-7-3h-1v-1h1zm-11-11h-1v-1h1zm-14-6h-1v-1h1zm-3-2h-1v-1h1zm-20-5v4h-1v-2-1-1zm3 1h-1v-1h1z"/>
		<path id="Path 32" fill-rule="evenodd" class="s15" d="m37 232h-1v-1h1zm22-12h-1v-1h1zm1-1h-1v-1h1zm-11-1h-1v-1h1zm4-2h-1v-1h1zm3-3h-1v-1h1zm4-7v2-1zm-5 2h-1v-1h1zm4-3l1 1h-1zm4-2h-1v-1h1zm-2-3h-1v-1h1zm-2 0h-1v-1h1zm-1-2h-1v-1h1zm2-4h-1v-1h1zm-3-1v1h-1v-1-1-1zm-8 0v-3 1 1zm6-4h-1v-1h1zm2-1h-1v-1h1zm-7 0h-1v-1h1zm1-2l1 1h-1-1v-1zm14-12h-1v-1h1zm2-1h-1v-1h1zm-22-3v3-4zm20 2h-1v-1h1zm-13 0h-1v-1h1zm10-2h-1v-1h1zm-3-2h-1v-1h1zm-15 0h-1v-1h1zm18-1h-1v-1h1zm-11-2h-1v-1h1zm15-1h-1v-1h1zm-21-1h-1v-1h1zm4-6h-1v-1h1zm6-2h-1v-1h1zm-3 0h-1v-1h1zm-5-1h-1v-1h1zm-31-3h-1v-1h1zm33-2h-1v-1h1zm-1-2h-1v-1h1zm-2 0h-1v-1h1zm4-2h-1v-1h1zm-13 0h-1v-1h1zm15-1h-1v-1h1zm-4-2h-1v-1h1zm-8-1h-1v-1h1zm11-5h-1v-1h1zm-4 0h-1v-1h1zm-12 0h-1v-1h1zm14-1h-1v-1h1zm-4-3h-1v-1h1zm7-2h-1v-1h1zm-4-29h-1v-1h1zm-6-3h-1v-1h1zm0-3h-1v-1h1zm-11-2h-1v-1h1zm-7-4h-1v-1h1zm-17-1h-1v-1h1zm43-3h-1v-1h1zm3-11h-1v-1h1zm-10-1h-1v-1h1zm14-2h-1v-1h1zm-5-9v2h-1v-1zm2-8h-1v-1h1zm16-1h-1v-1h1zm-16-1h-1v-1h1zm3-2h-1v-1h1zm-2 0h-1v-1h1zm1-4h-1v-1h1zm7-3h-1v-1h1zm-1-1h-1v-1h1zm-7 0h-1v-1h1zm-3 0h-1v-1h1zm2-1h-1v-1h1zm6-1h-1v-1h1zm-8 0h-1v-1h1zm7-1h-1v-1h1zm-1-3h-1v-1h1zm-6-4h-1v-1h1zm-4-3h-1v-1h1zm-9-6h-1v-1h1zm-4 0h-1v-1h1zm-6-4h-1v-1h1zm-5-1h-1v-1h1zm2-1h-1v-1h1zm-1-4h-1v-1h1zm-4-10h-1v-1h1z"/>
		<path id="Path 33" fill-rule="evenodd" class="s16" d="m16 251h-1v-1h1zm0-3h-1v-1h1zm-4-2l2 1h-1-1zm5-1h-1v-1h1zm-3-4h-1v-1h1zm-4-2h-1v-1h1zm-2-1h-1v-1h1zm8-1h-1v-1h1zm4-7h-1v-1h1zm-15-6h-1v-1h1zm62-11h-1v-1h1zm4-3h-1v-1h1zm-20-22h-1v-1h1zm-5-18h-1v-1h1zm1-24h-1v-1h1zm8-7h-1v-1h1zm-21-2h-1v-1h1zm10-36h-1v-1h1zm-5-1h-1v-1h1zm-3-1h-1v-1h1zm0-2h-1v-1h1zm-4-2h-1v-1h1zm-4 0h-1v-1h1zm13-4h-1v-1h1zm-33 0h-1v-1h1zm36-1h-1v-1h1zm-6-1h-1v-1h1zm-10 0h-1v-1h1zm1-1h-1v-1h1zm-20 0h-1v-1h1zm38-11h-1v-1h1zm5-2h-1v-1h1zm-10-4h-1v-1h1zm3-3h-1v-1h1zm8-3h-1v-1h1zm-2 0h-1v-1h1zm0-2l-1 1 2-2zm5-1h-1v-1h1zm4-2h-1v-1h1zm-2 0h-1v-1h1zm-5-16h-1v-1h1zm-4-2h-1v-1h1zm9-4h-1v-1h1zm-7-8h-1v-1h1zm-2 0h-1v-1h1zm-40-1h-1v-1h1zm5-8h-1v-1h1zm-2-2h-1v-1h1zm-1-3h-1v-1h1zm0-4l1 2h-1v-1zm-4 1v1l-1-1zm0-1h-1v-1h1zm14-1h-1v-1h1zm-6-3h-1v-1h1zm0-4h-1v-1h1z"/>
		<path id="Path 34" class="s17" d="m15 250h-1v-1h1zm3-10h-1v-1h1zm-7 0h-1v-1h1zm0-4h-1v-1h1zm30-4h-1v-1h1zm2-1h-1v-1h1zm1-1h-1v-1h1zm2-1h-1v-1h1zm1-1h-1v-1h1zm1-1h-1v-1h1zm3-2h-1v-1h1zm4-2h-1v-1h1zm7-7h-1v-1h1zm1-1h-1v-1h1zm-1-16h-1v-1h1zm-5 0h-1v-1h1zm4-10h-1v-1h1zm-9-4h-1v-1h1zm1-1h-1v-1h1zm-1-8h-1v-1h1zm-3-3h-1v-1h1zm-3-51v1-3zm2-1h-1v-1h1zm-7-3h-1v-1h1zm5-9h-1v-1h1zm-7-2h-1v-1h1zm6-1h-1v-1h1zm-27-1h-1v-1h1zm9-9h-1v-1h1zm24-4h-1v-1h1zm-25-4h-1v-1h1zm25-24h-1v-1h1zm5-5h-1v-1h1zm9-2h-1v-1h1zm-9 0h-1v-1h1zm-2-1h-1v-1h1zm-2 0h-1v-1h1zm0-2h-1v-1h1zm10-3h-1v-1h1zm0-4h-1v-1h1zm2-1h-1v-1h1zm-3 0h-1v-1h1zm2-1h-1v-1h1zm-5 0h-1v-1h1zm4-1h-1v-1h1zm-3 0h-1v-1h1zm-7 0h-1v-1h1zm0-5h-1v-1h1zm-5-12h-1v-1h1zm-28-11h-1v-1h1zm3-2h-1v-1h1zm-5-7h-1v-1h1zm-1-3h-1v-1h1z"/>
		<path id="Path 35" class="s18" d="m11 224h-1v-1h1zm45-44v1-2zm2-2h-1v-1h1zm-3 0h-1v-1h1zm-7-2h-1v-1h1zm-4-21h-1v-1h1zm8-5h-1v-1h1zm-15-2h-1v-1h1zm-3-4l-1 1h-1l3-1zm22-3h-1v-1h1zm-20 0h-1v-1h1zm21-1h-1v-1h1zm-23-1h-1v-1h1zm10-5h-1v-1h1zm6-19h-1v-1h1zm-10-18h-1v-1h1zm11-15h-1v-1h1z"/>
		<path id="Path 36" class="s3" d="m59 207h-1v-1h1zm-4-15h-1v-1h1zm-1-1h-1v-1h1z"/>
		<path id="Path 37" class="s17" d="m15 248h-1v-1h1zm-2 0h-1v-1h1z"/>
	</g>
</svg>