<svg version="1.2" xmlns="http://www.w3.org/2000/svg" viewBox="0 0 78 254" width="78" height="254">
	<style>
		.s0 { opacity: .26;fill: #f6f7f5 } 
		.s1 { opacity: .28;fill: #0b0b0b } 
		.s2 { opacity: .3;fill: #fffe00 } 
		.s3 { opacity: .3;fill: #1a1a1a } 
		.s4 { opacity: .34;fill: #1a18ce } 
		.s5 { opacity: .38;fill: #141414 } 
		.s6 { opacity: .61;fill: #1f1f1e } 
		.s7 { opacity: .64;fill: #545454 } 
		.s8 { opacity: .65;fill: #343434 } 
		.s9 { opacity: .69;fill: #a6a89f } 
		.s10 { opacity: .71;fill: #3b3b3b } 
		.s11 { opacity: .74;fill: #282828 } 
		.s12 { opacity: .94;fill: #e16ddc } 
		.s13 { opacity: .97;fill: #f0f1ef } 
		.s14 { opacity: .98;fill: #545454 } 
		.s15 { opacity: .98;fill: #222221 } 
		.s16 { opacity: .98;fill: #292929 } 
		.s17 { opacity: .98;fill: #383837 } 
		.s18 { opacity: .98;fill: #171716 } 
	</style>
	<g id="Background">
		<path id="Path 0" fill-rule="evenodd" class="s0" d="m57 88v-41h1v4 2 7 4 9 1 1 1 12zm2-37v-4h1v36 2 3h-1v-12-1-1-1-9-4-7zm3 17v-17h1v2 2 13zm3-14v-2h1l-1 6zm9-1h1v1h-1zm-1 18l1-14h1zm-9-1l1-12-1 13zm13 1l-1-11h1zm-16 7l1-10v1 9zm2 1v-8h1v8zm11 0l-1-6 2 6zm2 1l1-7v7zm0 37v-1h1v35h-1v-4-1-1-1-22-1-1-2zm-3 34v-32h1v9 1 13 5 1 1 2zm-15 0v-23h1v8 1 4 10zm2-17v-3h1v3zm1 1v-1l1 13h-1v-1-3-2-1-1-3zm-22 2v-1l1 4h-1v-1zm1 4v-1l1 4h-1v-1-1zm1 4v-1l1 2h-1zm34 25v-2h1v2zm-17 12v-3h1v1 1 1zm18-1v-1h1v17h-1v-2-3-6-2-1-1zm-3 22v-22h1v1 1 4 6 1 9zm-15-20h1v1h-1zm2 1l1-1h1v1 16 2 1 2h-1l-1-20zm3 13v-13h1v13zm-6 17l1-29v1 1 2 3 1 6 5 1 2 5 1 1zm2-28v-1h1v23 4h-1v-5-2-1-5-6-1-3-2zm-25 1h1v1h-1zm-1 1h1v1h-1zm31 10v-1l1 6h-1v-3-1zm-1 5h1v1h-1zm-30 28h1v1h-1z"/>
		<path id="Path 1" fill-rule="evenodd" class="s1" d="m57 46l1-15v2 4 1 8zm2-13v-1h1v2 12h-1v-8-1zm3 11l-1-9h1v1 1 2 2 2zm1-7v-1h1v8h-1v-1-2-2zm2-1h1v1h-1zm1 6v-5h1v1 1 1 1 1zm2-2v-1h1l-1 3v-1zm-1 4v-1h1l-1 3v-1zm-5 7v-7h1v1 6zm2-6v-1h2v1 1l-1 1v3h-1zm10 7v-8h1v6 2zm-8-5v-1h1l-1 5zm10 3v-3h1v13h-1v-3-1zm-11 1h1v1h-1zm8 5l1-2v1 1zm4 17v-2h1v2zm-68 18v-14 1zm52-9v-3h1v2 1zm15 15v-16h1v32h-1v-1-1-1-1-3-1-1-1-1-1zm-14-9v-5h1l-1 11zm11 31l1-36v5 5 3 3 1 5 5 2 1 2 1 1 2zm-13-31v-3h1v3 6l-1 1v4h-1v-8zm-5 12l2-10h1v10h-2zm-44-8h1v1h-1zm50 7v-4h1l1 6h-1-1v-1zm-10 2v-1h4v1zm12 1v-1l6 1h-1-3zm-12 2v-1h3 1v1zm7 13l-3-13h1 2v3 3 4 1zm3-8v-5h1 1 3v1l-5 20v-1-7-1-1-2-1-2zm8-5h1v1h-1zm-10 3v-2h1v4 1 2h-1v-2zm18 9v-3h1v3zm-19 11v-10h1v5 3 2zm-38-9h1v1h-1zm2 3h1v1h-1zm18 1v-1h1 1v1zm-16 6l-1-6h1v3 2zm14-5v-1h1 1zm-1 0h1v1h-1zm-1 2v-1h1v5h-1v-1-2zm24 5v-3h1v3zm-35 5l-1-7h1v3 1 1zm12-5v-1l1 3h-1v-1zm1 3v-1l1 4h-1v-1zm-12 7l-1-5h1v1 2 1zm1 4l-1-4h1v2 1zm1 5l-1-4h1v1 1 1zm13-1v-1h1v2h-1zm20 1v-2h1v8h-1v-1-3-1zm-33 2v-2h1v2zm14-1v-1l1 4h-1v-1-1zm-15 3l1-2v1 1zm49 3v-5h1v11h-1v-1-1-1-2zm-7 5l4-9h1v2 7h-1-1-1-1zm-43 9l1-17v1 1 6 1 1 3 2 1 1zm17-16v-1l11 3h-3-4-1-1-1-1v-1zm12 6l3-7h1l-2 10h-1-1v-1-1zm7-4v-1l4 7v1h-1-1-2v-2zm-8 1v-1l1 4h-1zm6 5v-2h1v1 1zm6 0l3-1v1h-1-1zm11 1v-1h1v4h-1zm-36 3v-1h1 1v1l-2 1zm-8 8v-8h1v1 1 2 2 2zm10-8h1v1h-1zm12 1v-1h1 1 2v4 2 4h-1zm7 10l4-11v1l-3 10zm14-10v-1h1l-1 2zm-45 1v-1h1v8h-1v-1-1-1-1-2zm9-1h1v1h-1zm7 3l-3-3h1 1 1v1 1zm5-2v-1h1 1 1l-3 2zm8 2v-3h1v10l1 1v5h-1-1v-2-1-8zm12-2l-6-1h1 2 1 1 1zm-33 1v-1h1l-1 3v-1zm34 12l-1-13h1 1v11 2zm-22-12h1v1h-1zm-26 5l1-4v1 1 1 1zm51-3v-1l1 9h-1zm-38 2v-2h1l-1 12v-2-1-1zm-14 3l1-2v1 1zm8-1h1v1h-1zm-11 5l1-2v1 1zm7-1v-1h1 1v1 1h-2zm35 4v-5l1 5zm-36-3h1v1h-1zm3 0h1v1h-1zm-4 1h1v1h-1zm5 2v-2l1 1v1zm-6-1h1v1h-1zm-1 1h1v1h-1zm13 0h1v1h-1zm-15 2v-1h1 1zm6 2l2-3v1 2h-1zm-5 1v-1h5v1zm9 1h1v1h-1zm-1 2l1-1-1 2zm-1 2v-1h1l-1 2zm-1 2v-1h1l-1 2zm-9 1l1-1h1v1 1 1 4h-1l-1-5zm8 1v-1h1l-1 2zm-9 1v-1h1l-1 2zm57 8v-9h1l-1 17v-6-1zm-49-7v-1h1l-1 4v-1-1zm-9 1v-1h1l-1 2zm-1 3v-2h1v3h-1zm3 1l1-2v1 1zm6 0v-2h1l3 7h-1-1-2v-3-1zm47 14v-15h1v1 7 3 2 2zm-55-13v-1h2v1h-1zm46 2l1-3h1v4l-1 1v3 1zm-3 1v-3h1l1 2 2 6h1v3 1 1h-1-1l-1 1-1 1h-1v-2l1-1v-8zm2-1v-2h1v2zm-3 5v-4h1v1 8 1 2 1h-1-1v-2-1-1-4zm6-3v-1l1 5h-1v-1zm1 6v-2l1 2zm-37 0v-1h1l-1 2zm-1 2v-1h1v2h-1zm28 8v-9h1v1 1 1 2 1 1 2zm12-7v-1l1 2h-1zm-52 1l-2-1h1zm1 1h1v1h-1zm14 0h1v1h-1zm32 1v-1h1 1 1v3h-1zm-45 0h1v1h-1zm44 0h1v1h-1zm-41 2l-2-1h1 1zm40-1h1v1h-1zm-40 1h1v1h-1zm39 2v-2h1v6h-1v-1zm4 0l1-2v1 1zm-42-1h1v1h-1zm1 1h1v1h-1zm32 2l1-2v1 1zm-29 0l-2-1h1zm12 0v-1l2 1h-1zm-12 0h1v1h-1zm28 2l1-2v1 1zm-27-1h1v1h-1zm3 2l-2-1h1 1zm12 0v-1l2 1h-1zm11 2l1-3v1 1 1zm-21-1l-2-1h1 1zm13 1v-1l2 1h-1zm5 2l3-2v1 1 1h-1-1-1zm5-1l1-1h1v5h-1-1v-3zm-6 1l-1-1 2 1zm-12 0h1v1h-1zm3 2l-2-1h1 1zm2 1l-2-1h1 1zm2 1l-2-1h1 1zm2 1l-2-1h1 1zm2 1l-2-1h1 1zm2 1l-2-1h1 1zm2 4l-2-4h1 1v1 1 1zm1 3l-1-3h1v2zm1 2l-1-2h1v1zm0 0h1v1h-1zm1 1h1v1h-1zm1 1h1v1h-1zm1 2v-1h1 1v1z"/>
		<path id="Path 2" class="s2" d="m73 56h1v1h-1zm-10 25v-2h1l-1 3zm13-1h1v1h-1zm-35 66h1v1h-1zm32 5h1v1h-1zm-15 31h1v1h-1zm5 1h1v1h-1zm-26 1h1v1h-1zm-1 1h1v1h-1zm-1 1h1v1h-1zm28 18h1v1h-1zm-27 29l-2-1h1 1zm2 1l-2-1h1 1z"/>
		<path id="Path 3" fill-rule="evenodd" class="s3" d="m60 1v-1h6v1h-1-1-3zm-2 1l2-1v1h-1zm-3 4l1-2v1 1zm-1 3l1-3v1 2zm17-2v-1l3 1h-1-1zm-19 6l2-4v1 1l-1 2zm5-3h1v1h-1zm17 3v-2h1v2zm-25 1l3-1v1h-2zm26 0v-1l1 4h-1zm-29 1l3-1v1h-1-1zm-2 1l2-1v1h-1zm-3 1l3-1v1h-1-1zm16 1v-2h1l1 1v3h-1l-1-1zm-18 0l2-1v1h-1zm13 0v-1h1 2v1 2 1zm24 0v-1l1 30h-1v-3-3-3-1-1-1-1-1-5-8zm-39 1l2-1v1h-1zm13 0v-1h1 1zm22 1v-2h1l1 1v9h-1-1v-1-1-4zm-24 0v-1h1 1zm13 1v-2h1 1v1 1h-1zm-27 0l2-1v1h-1zm12 0v-1h1 1zm-14 1l2-1v1h-1zm13-1h1v1h-1zm11 3l-1-3h1v1 1zm-26-1l2-1v1h-1zm13 0v-1h1 1zm28 2v-3h1v4h-1zm-30-1v-1h1 1zm21 1v-2h4v1 1l-3 5h-1v-1zm-35 0l2-1v1zm13-1h1v1h-1zm17 3l-1-3h1v1 1zm-32-1l2-1v1zm14-1h1v1h-1zm25 7l2-7h1v5 1 1 1h-1-1zm-27-5l1-1h1zm-1 0h1v1h-1zm22 2l-1-2h1v1zm-37 0l2-1-1 1zm14-1h1v1h-1zm-1 1h1v1h-1zm24 2v-2h1v1 1zm-26 0l1-1h1zm31 0v-1l1 2zm-50 2l5-1v1h-1-1zm47 1v-2h1v1 1zm-49 0l2-1v1h-1zm59 0v-1h1l1 1h1 1 1v1 1 1 1 3 3h-1l-4-8v-1zm-9 0h1v1h-1zm-53 2l2-1v1h-1zm55 0v-1h1 1v1h-1zm3 0h1v1h-1zm3 0h1v1h-1zm-1 2v-1h1v2h-1zm-64 3l1-2v1 1zm27-2h1v1h-1zm-4 7l2-6h1 1l-3 6zm-24 1l-1-2h1v1zm25 0v-1l1 5h-1v-2zm-25 0h1v1h-1zm1 1h1v1h-1zm5 2l-2-1h1 1zm1 3l-1-3h1v2zm19-1v-1l1 2h-1zm-18 3l-1-2h1v1zm19-1v-1l1 2h-1zm-18 4l-1-3h1v2zm19-2v-1l1 2zm-18 6l-1-4h1v2 1zm22-1v-1l2 1h-1zm-21 3l-1-2h1v1zm24-1v-1l1 2h-1zm-24 1h1v1h-1zm1 1h1v1h-1zm1 1h1v1h-1zm1 1h1v1h-1zm21 0h1v1h-1zm-19 3l-1-2h1v1zm18-2h1v1h-1zm-1 2v-1h1l-1 3v-1zm-16 2l-1-2h1v1zm-1 2l1-2h1v1 1 1h-1-1zm16 9v-11h1v11zm-7-6v-4h1 1v4h-1zm-14-2l3-1v1h-1-1zm-4 2v-1h3v1h-2zm8 3v-1h1l1 2h1v1h-1-1-1v-1zm18 4v-1l1 7h-1v-4zm1 7v-1l1 6h-1v-3zm-25 2v-1h1 1v1zm11 1l-9-1h1 1 2 1 4zm-1 2h1v1h-1zm16 1v-1l2 3h-2zm-17 4v-3 1zm19-1v-1h10v1h-4-2zm-19 3v-2h1v2zm15 0v-1h3v1l-1 1-1 1h-1-1v-1zm-16 3l1-3v1 2zm26-2v-1h1 3 1v1l-5 2v-1zm-19 1v-1h1 1v1 1 2h-1-1v-1-1zm-7 12v-11 1 1 1 4 2 1zm24-10l1-1h1l-1 2v1h-1v-1zm4 7v-1h1l-1 2zm-1 2v-1h1l-1 2zm-27 1h1v1h-1zm26 1v-1h1l-1 2zm-25 1h1v1h-1zm24 0h1v1h-1zm-23 1h1v1h-1zm21 1v-1h1 1zm-1 0h1v1h-1zm-29 67l1-2v1 1zm-2 3l1-2v1 1zm-1 2l1-2v1 1zm-1 2l1-2v1 1zm-1 2l1-2v1 1zm-6 3l6-3v1 1 1h-5zm-1 2l1-2v1 1zm-1 4v-4h1v1 2 1zm1 0h1v1h-1zm1 1h1v1h-1zm2 3l-1-2h1v1zm0 0h1v1h-1zm1 1h1v1h-1zm1 1h1v1h-1zm1 1h1v1h-1zm1 1h1v1h-1zm67 2v-2h1v12h-1v-4-1zm-64 0l-2-1h1 1zm4 2l-4-2h4v1zm57 2l1-2h1zm-2 2v-3l2 1v1l-1 1zm-8 7l3-4h1v1 3 1h-1-3-1v-1zm10-2v-2h1v1 8 2 1h-1-1v-1-1-2-1-3-1zm-2 3v-1h1v3h-1zm-10 3l1-1 3 1v1h-1-1v1h-1-1zm1 1h1v-1h-1zm14 4v-5h1l-1 7v-1zm-1 4v-2h1l-1 7v-1-2-1zm-3 6v-1h2 1zm-1 0h1v1h-1zm-1 1h1v1h-1zm-4 4v-1h2zm-5 1v-1h1 1 2 1v1z"/>
		<path id="Path 4" class="s4" d="m57 46h1v1h-1zm2 0h1v1h-1zm15 6h1v1h-1zm-13 26h1v1h-1zm-1 7v-2h1v2zm-3 5v-2h1v2zm2 1v-3h1zm-1 36h1v1h-1zm-28 2h1v1h-1zm30 1h1v1h-1zm-33 8h1v1h-1zm2 6h1v1h-1zm29 9v-2h1v2zm-27 13h1v1h-1zm2 8h1v1h-1zm25 4v-2h1v2zm0 7h1v1h-1zm1 27h1v1h-1zm-2 3h1v1h-1z"/>
		<path id="Path 5" class="s5" d="m57 9h1v1h-1zm1 1h1v1h-1zm-1 5h1v1h-1zm1 1h1v1h-1zm0 4h1v1h-1zm5 0h1v1h-1zm7 0h1v1h-1zm-1 3h1v1h-1zm-9 4v-2h1v2zm-1 4h1v1h-1zm7 2h1v1h-1zm8 0h1v1h-1zm-12 1h1v1h-1zm4 9v-1h1 1v1h-1zm-2 7h1v1h-1zm-35 22h1v1h-1zm-12 3v-1h2v1h-1zm4-1h1v1h-1zm8 3h1v1h-1zm-10 1h1v1h-1zm55 3v-2h1v2zm-54-1h1v1h-1zm9 8v-2h1v1 1zm1 0h1v1h-1zm-7 6h1v1h-1zm36 5h1v1h-1zm-20 3h1v1h-1zm6 0h1v1h-1zm14 2h1v1h-1zm-24 1h1v1h-1zm-1 3v-2h1v1 1zm25 4h1v1h-1zm1 14h1v1h-1zm-33 18h1v1h-1zm33 15h1v1h-1zm0 3h1v1h-1zm-28 3h1v1h-1zm0 11h1v1h-1zm26 8h1v1h-1zm-37 1h1v1h-1zm0 9h1v1h-1zm-2 11h1v1h-1zm48 10h1v1h-1zm-8 6h1v1h-1zm13 3h1v1h-1zm-15 7h1v1h-1zm18 1h1v1h-1zm-15 3h1v1h-1zm12 2h1v1h-1z"/>
		<path id="Path 6" class="s6" d="m65 1h1v1h-1zm7 6h1v1h-1zm-18 2h1v1h-1zm20 1h1v1h-1zm-17 1h1v1h-1zm17 2h1v1h-1zm-28 2h1v1h-1zm12 0h1v1h-1zm-17 2h1v1h-1zm32 1v-1h1v2zm2-1h1v1h-1zm-36 1h1v1h-1zm31 3l1-1h1v2h-1l-1 1h-1v-2zm-26 0h1v1h-1zm14 0h1v1h-1zm3 0h1v1h-1zm-29 1h1v1h-1zm-2 1h1v1h-1zm30 2l2-2v2h-1zm6-1h1v1h-1zm-6 3h1v1h-1zm13 1h1v1h-1zm-15 5v-2h1v1 1zm9 0v-1h1v2h-1zm-6 0h1v1h-1zm14 0h1v1h-1zm-44 1h1v1h-1zm31 1h1v1h-1zm7 0h1v1h-1zm6 0h1v1h-1zm-7 1h1v1h-1zm-10 1h1v1h-1zm9 0h1v1h-1zm8 0h1v1h-1zm-70 2h1v1h-1zm25 0h1v1h-1zm37 2h1v1h-1zm-1 2h1v1h-1zm-39 3h1v1h-1zm-22 2h1v1h-1zm2 0h1v1h-1zm57 3h1v1h-1zm-35 2h1v1h-1zm34 2v-2l1 1zm-30 4h1v1h-1zm-20 2h1v1h-1zm3 4h1v1h-1zm46 3h1v1h-1zm-27 3h1v1h-1zm-15 8v-1h1v1 1h-1zm9-1h1v1h-1zm45 5v-2h1v7h-1zm-13 0v-1h1 1v1h-1zm-26 0h1v1h-1zm-5 4h1v1h-1zm-1 1h1v1h-1zm1 1h1v1h-1zm6 1h1v1h-1zm-27 1h1v1h-1zm5 1h1v1h-1zm9 1h1v1h-1zm51 3v-3h1v3zm-14-1l1-1h1v1h-1zm-37 0h1v1h-1zm14 1h1v1h-1zm-16 2h1v1h-1zm17 2v-1h2v1zm1 1h1v1h-1zm23 0h1v1h-1zm-18 1h1v1h-1zm2 0h1v1h-1zm-25 1h1v1h-1zm7 0h1v1h-1zm7 0h1v1h-1zm10 0h1v1h-1zm21 2v-1h1 1v1zm-46 1h1v1h-1zm15 0h1v1h-1zm8 2h1v1h-1zm2 0h1v1h-1zm3 3v-2h1v2zm11 3v-1h1v2h-1zm-1 3v-2h1v1 1zm-37 1h1v1h-1zm18 3h1v1h-1zm21 4v-1h1v1 1h-1zm-36 2h1v1h-1zm36 7h1v1h-1zm-34 5h1v1h-1zm14 5h1v1h-1zm-12 4h1v1h-1zm13 1h1v1h-1zm-13 2h1v1h-1zm-1 2h1v1h-1zm34 2h1v1h-1zm-30 10h1v1h-1zm9 1h1v1h-1zm14 0h1v1h-1zm18 1h1v1h-1zm3 0h1v1h-1zm-28 3v-1h1 1v1zm3-1h1v1h-1zm-24 1h1v1h-1zm12 0h1v1h-1zm37 0h1v1h-1zm-45 2h1v1h-1zm3 4v-1h1v2h-1zm29 2l-1-1h1 1v1zm-40 0h1v1h-1zm5 1h1v1h-1zm-7 1h1v1h-1zm39 2v-1h1v2 1h-1v-1zm-36 1h1v1h-1zm7 1h1v1h-1zm28 2h1v1h-1zm-46 3h1v1h-1zm-1 2h1v1h-1zm-2 4h1v1h-1zm-1 2h1v1h-1zm55 0h1v1h-1zm-61 3h1v1h-1zm-1 2h1v1h-1zm0 3h1v1h-1zm2 2h1v1h-1zm72 4l1-3v6h-1zm-10 1h1v1h-1zm-56 2h1v1h-1zm65 4v-2h1v5h-1-2v-1zm-59-1h1v1h-1zm46 0h1v1h-1zm7 0h1v1h-1zm1 5v-3h1v3zm-49-1h1v1h-1zm42 0h1v1h-1zm-28 1h1v1h-1zm32 1h1v1h-1zm7 11v-8h1v8zm2-2v-6h1v3 3zm-35-5h1v1h-1zm-11 1h1v1h-1zm31 0h1v1h-1zm-3 2h1v1h-1zm-23 1h1v1h-1zm2 1h1v1h-1zm11 0h1v1h-1zm23 0h1v1h-1zm-1 1h1v1h-1zm-30 1h1v1h-1zm2 1h1v1h-1zm2 1h1v1h-1zm14 1h1v1h-1zm14 0h1v1h-1zm-22 2h1v1h-1zm25 0h1v1h-1zm-23 1h1v1h-1zm7 12h1v1h-1z"/>
		<path id="Path 7" class="s7" d="m58 53v-2h1v2zm0 11v-4h1v4zm0 10h1v1h-1zm16 25l1-2h1v4l-2-1zm0 11v-5h1l1 1v3l-1 1zm-14 6h1v1h-1zm14 12v-9h1l1 1v1 1 22h-1l-1-2v-13zm-15 0v-1h1v3 1 3 1 1h-1zm0 9l1-1h1v3 1 1h-2zm16 8h1v1h-1zm-1 3l1-1h1v4l-2-2zm1 35h1v1h-1zm-16 1h1v1h-1zm15 3l2-1v6l-2 1zm-16 5v-3h1v3zm0 7v-6h1v6zm4 3v-2h1v2zm-4 2h1v1h-1z"/>
		<path id="Path 8" class="s8" d="m37 19h1v1h-1zm21 18v-4h1v4zm17-3h1v1h-1zm-13 5v-2h1v2zm-4 7v-8h1v8zm17-5v-3h1v3zm-8-2h1v1h-1zm-5 4v-2h1v2zm4 1h1v1h-1zm9 6v-6h1v3 3zm-12 1v-6h1v5 1l1 1v2h-1l-1-1zm2-1v-3h1v4h-1zm9 4h1v1h-1zm-57 26h1v1h-1zm45 1h1v1h-1zm-1 13v-6h1v6zm13-1v-5h1v5zm-14 6v-4h1v4zm14 0v-3h1v1zm0 6v-5l2 1v1 1 1l-1 1zm-6-3h1v1h-1zm1 1h1v1h-1zm6 2h1v1h-1zm-17 5v-3h1v3zm16 2v-2h1l1 1v1h-1zm-14 0h1v1h-1zm14 3v-2h1 1 1v3h-1zm-16-1h1v1h-1zm2 1h1v1h-1zm-1 1h1v1h-1zm1 6v-5h1v7h-1zm15-3l1-1v2zm-36 21h1v1h-1zm36 4h1v1h-1zm0 2h1v1h-1zm-1 1h1v1h-1zm0 4v-2l2 2v5 1 2 1 1h-2v-7-2zm-14 7l1-3 1 1v5h-1v-1-1zm-6 2h1v1h-1zm15 1h1v1h-1zm7 1h1v1h-1zm-20 1h1v1h-1zm4 1v-1h1 1 2v1zm0 2v-1h6v1l-4 11h-1v-10zm-1 4v-4h1v1 3zm7-4h1v1h-1zm7 1h1v1h-1zm-22 1h1v1h-1zm23 11v-11h1v2l1 1v8zm-15-3v-4h1v8h-1v-1-1zm3 7v-5h1v5 1h-1zm-43-2h1v1h-1zm55 2v-1h2v1h-1zm-53 1h1v1h-1zm0 2h1v1h-1zm7 1h1v1h-1zm46 16v-9l2 1v2 9 1 1l-1 3h-1v-7zm-54-8h1v1h-1zm43 3h1v1h-1zm0 4v-2h1v3h-1zm-37-1h1v1h-1zm-5 1h1v1h-1zm41 3v-2h1v1 1 2zm2-1v-1h1v1l-1 3v-2zm-44 0h1v1h-1zm38 8v-5h1v5zm-29-3h1v1h-1zm32 8v-8h1v8zm4-5v-3h1v3zm-7 2v-1h1v4h-1v-1-1zm8 2v-3h1v2 1zm8 0v-2h1v2zm-45-1h1v1h-1zm-14 1h1v1h-1zm52 0h1v1h-1zm-9 2h1v1h-1zm-25 3h1v1h-1zm25 0h1v1h-1zm-23 2h1v1h-1zm1 1h1v1h-1zm-5 5h1v1h-1zm13 1h1v1h-1zm12 2h1v1h-1zm-3 3h1v1h-1zm2 9l1-1h1v1 1h-1-1zm0 5h1v1h-1z"/>
		<path id="Path 9" class="s9" d="m58 73h1v1h-1zm0 2h1v1h-1zm1 61h1v1h-1zm-29 3h1v1h-1zm46 40h1v1h-1zm-16 4h1v1h-1zm-2 6v-2h1v2zm-1 25h1v1h-1z"/>
		<path id="Path 10" class="s10" d="m58 47v-1h1v1 4h-1zm17 5v-2h1v6h-1v-1-1-1zm-17 8v-7h1v7zm5-5l1-1h1v4l-1 12-1 1v8 2h-1v-2-1-9l1-1zm10 16l2-14h1v3l1 11v2l-1 7v1 16h-1v-1-3-5-7-2l-2-6zm-15 2v-9h1v9zm-41 3h1v1h-1zm41 12v-12h1v12 3 8 1h-1v-10zm-37-7h1v1h-1zm40 4v-2h1v5h-1zm-30 10l-1-1h2v1zm28 5h1v1h-1zm1 9h1v1h-1zm15 1h1v1h-1zm-1 2h1v1h-1zm-15 3h1v1h-1zm15 1v-1l2 1zm-15 6v-5h1v5zm15-3v-2h2v1l-1 1zm-15 8v-2h1v1 1zm1 8h1v1h-1zm-1 16v-10h2v2 3 1 2 1 1 3 1l-1 3v1 1 2 1 1h-1-1-1v-1l2-10zm15-4v-5l1 2v1 1 1zm-33 3h1v1h-1zm1 3h1v1h-1zm9 4v-1h3v1h-2zm3 4h1v1h-1zm7 1v-1h1v2h-1zm9-1h1v1h-1zm-15 2h1v1h-1zm10 0h1v1h-1zm-8 3v-1h1 1 1v1h-1zm-4 0h1v1h-1zm-2 1h1v1h-1zm23 0h1v1h-1zm-15 5v-2h1v2zm-29 1h1v1h-1zm7 2v-2h1v6h-1v-1zm-6 0h1v1h-1zm6 5h1v1h-1zm22 0h1v1h-1zm15 2v-1h2v1zm0 5v-4h1l1 1v2zm-12 13v-16h1v13 1l1 1v1h-1zm-32-13v-2h1v2zm2 1h1v1h-1zm26 4h1v1h-1zm16 1l2-1v3l-2-1zm-16 11v-5h1v5zm4-2h1v1h-1zm-4 5v-2h1v2zm0 5h1v1h-1zm8 4h1v1h-1zm-8 1h1v1h-1zm-35 6h1v1h-1zm1 1h1v1h-1zm13 1h1v1h-1zm-9 2h1v1h-1zm2 1h1v1h-1zm11 0h1v1h-1zm-8 2h1v1h-1zm9 5h1v1h-1z"/>
		<path id="Path 11" fill-rule="evenodd" class="s11" d="m60 1h1v1h-1zm4 0h1v1h-1zm-6 1h1v1h-1zm8 0h1v1h-1zm-9 1h1v1h-1zm-1 1h1v1h-1zm13 1h1v1h-1zm-14 1h1v1h-1zm16 1h1v1h-1zm2 0h1v1h-1zm-17 4l1-3v1 1 1zm18-1v-2h1v2zm-20 0h1v1h-1zm4 1h1v1h-1zm-9 3h1v1h-1zm-2 1h1v1h-1zm-3 1h1v1h-1zm-2 1h1v1h-1zm17 3v-3h1l1 4v1h-3l1-1zm-19-2h1v1h-1zm23 1v-1l1 2h-1zm7 0l2-1v2h-1zm6 1l-1-2h1zm-38-1h1v1h-1zm9 0h1v1h-1zm-11 1h1v1h-1zm21 0h1v1h-1zm-23 1h1v1h-1zm28 1v-1h1 1 1zm-29 0h1v1h-1zm9 0h1v1h-1zm28 1l1-1v3l-2-1zm-39 0h1v1h-1zm-2 1h1v1h-1zm-2 2v-1h2zm34 1v-2h1v4l-1-1zm-36 0v-1h2zm46-1h1v1h-1zm-47 1h1v1h-1zm48 1h1v1h-1zm2 5l2-5v5h-1zm-53-4h1v1h-1zm52 0h1v1h-1zm-53 1h1v1h-1zm42 0h1v1h-1zm5 1h1v1h-1zm-54 3v-1h3v1h-1-1zm17-1h1v1h-1zm35 0h1v1h-1zm6 0h1v1h-1zm-60 1h1v1h-1zm-1 1h1v1h-1zm-2 1h1v1h-1zm54 0h1v1h-1zm5 0h1v1h-1zm8 0h1v1h-1zm-8 2h1v1h-1zm-5 3v-2h1v2zm-57-1h1v1h-1zm62 0h1v1h-1zm-64 2l1-1h1v1 1h-2zm72 2v-3h1v3zm-73 1v-2h1v2zm60-2h1v1h-1zm1 1h1v1h-1zm3 1h1v1h-1zm-39 4v-2h1v2zm-21-1h1v1h-1zm22 3h1v1h-1zm2 4h1v1h-1zm44 1v-1h1v1 1h-1zm-42 2h1v1h-1zm2 2h1v1h-1zm2 1h1v1h-1zm1 1h1v1h-1zm1 2h1v1h-1zm-21 2h1v1h-1zm18 4h1v1h-1zm-7 2h1v1h-1zm-7 1h1v1h-1zm-7 2h1v1h-1zm-1 1h1v1h-1zm-4 2v-1h1 1v1zm10-1h1v1h-1zm9 0h1v1h-1zm-10 1h1v1h-1zm3 2h1v1h-1zm-4 1h1v1h-1zm18 5v-2h1v2zm-6-1h1v1h-1zm1 1h1v1h-1zm-1 3h1v1h-1zm2 0h1v1h-1zm-21 3v-1h2 1v1h-1-1zm26 1v-2h1v2zm-21-1h1v1h-1zm3 0h1v1h-1zm5 4h1v1h-1zm-1 1h1v1h-1zm15 1v-1h1v2 1l-1-1zm-16 3v-2h1v2zm39-2h1v1h-1zm-14 2v-1h4 1v1zm9-1h1v1h-1zm-19 2l3-1v1zm4 0v-1h1v1l-1 1zm21-1h1v1h-1zm-18 1h1v1h-1zm4 1v-1h3v1zm11 4v-3h1v1 2zm2-2v-1h1v5h-1zm8-1h1v1h-1zm-32 1h1v1h-1zm9 0h1v1h-1zm-19 1h1v1h-1zm-6 1h1v1h-1zm14 1h1v1h-1zm9 1h1v1h-1zm15 5v-4h1v2 1 1zm2-2v-2h1v2zm-12 1v-2h1v2zm27-1h1v1h-1zm-15 3v-2h1v2zm14 2v-1h2v1zm-29 1h1v1h-1zm-23 1h1v1h-1zm22 0h1v1h-1zm-2 1h1v1h-1zm-19 1h1v1h-1zm13 2h1v1h-1zm-12 4v-2l1 2zm12 2h1v1h-1zm1 3h1v1h-1zm-12 3v-2h1v2zm13 1h1v1h-1zm-12 2h1v1h-1zm13 3h1v1h-1zm-12 2h1v1h-1zm13 2h1v1h-1zm-12 2h1v1h-1zm-1 19v-3h1v3zm37-3h1v1h-1zm-33 1h1v1h-1zm2 1h1v1h-1zm11 1h1v1h-1zm23 1v-1h2v1zm-29 2h1v1h-1zm11 0h1v1h-1zm-23 2h1v1h-1zm4 0h1v1h-1zm-5 3h1v1h-1zm-1 2h1v1h-1zm-1 1h1v1h-1zm5 0h1v1h-1zm2 2h1v1h-1zm7 0h1v1h-1zm-11 1h1v1h-1zm-1 1h1v1h-1zm12 1v-1h1v2h-1zm-20 1h1v1h-1zm14 0h1v1h-1zm5 1h1v1h-1zm-21 1h1v1h-1zm-1 1h1v1h-1zm20 0h1v1h-1zm-1 1h1v1h-1zm-20 1h1v1h-1zm-3 5h1v1h-1zm18 2h1v1h-1zm-9 1h1v1h-1zm8 1h1v1h-1zm-19 1h1v1h-1zm-6 3h1v1h-1zm0 5h1v1h-1zm26 3h1v1h-1zm2 1h1v1h-1zm44 4v-3h1v3zm-67-2h1v1h-1zm23 1h1v1h-1zm36 5v-1h1 1v1zm-2 0h1v1h-1zm-6 3v-2h1v2zm7-2h1v1h-1zm-4 1h1v1h-1zm-1 1h1v1h-1zm14 0h1v1h-1zm-16 1h1v1h-1zm12 0h1v1h-1zm-4 2h1v1h-1zm7 1v-1l1 2h-1zm-16 0h1v1h-1zm2 2v-2h2v3h-1zm7 2v-3l1 3zm-10-2h1v1h-1zm3 1h1v1h-1zm-4 1h1v1h-1zm5 0h1v1h-1zm-2 2v-1h1l2 1v1l-1 1-2 4v-5zm4 0v-1h3v1zm7 1v-2h1v2 1h-1zm-24-1h1v1h-1zm11 0h1v1h-1zm-2 1h1v1h-1zm-16 1h1v1h-1zm31 1l1-1h1v2h-2zm-19 0h1v1h-1zm12 1v-1h1l-1 2zm11 1v-2h1zm-21-1h1v1h-1zm-7 2h1v1h-1zm11 0h1v1h-1zm-9 1h1v1h-1zm5 2h1v1h-1zm3 3v-1h1v1l-1 1zm18 0h1v1h-1zm-20 1h1v1h-1zm1 3h1v1h-1zm5 5h1v1h-1z"/>
		<path id="Path 12" class="s12" d="m28 145h1v1h-1zm12 14l1-2h1v1 2 1h-1-1zm18 19h1v1h-1z"/>
		<path id="Path 13" class="s13" d="m28 138l1-9v2 1 1 1l1 1v1 2 1 1h-1l-1-1zm-2 0v-2l1 2zm5 0v-2h1v1 1zm-4 2v-1h1l1 1-1 2h-1zm3 4v-3h1v1l1 1v1 1 1 1zm2-3h1v1h-1zm-4 3v-1l1 1v1h-1zm1 1h1v1h-1zm-1 1h1v1h-1zm1 3v-1h3 1v1 2l-4 1v-1zm5 3h1v1h-1zm5 5v-2h1v1 2h-1zm2-1h1v1h-1zm-3 2h1v1h-1zm2 3h1v1h-1zm-13 8h1v1h-1z"/>
		<path id="Path 14" fill-rule="evenodd" class="s14" d="m14 36v-2h1v2zm-2-1h1v1h-1zm4 41h1v1h-1zm13 5l1-1h1l1 1-3 1zm-4 4l1-1h1v1h-1zm-7 5h1v1h-1zm2 1h1v1h-1zm11 4h1v1h-1zm0 4l1-2v2zm4-2h1v1h-1zm3 23v-1h4v1h-1-1zm-6 11l1-4 1 3 3 2v1l1 2v1 1l1 2v1 2h1v1 2 1 1 1 1 2h1v1 1l-3 1v1l-1 1-2-3v-1h-1-1v-1-2-1-1-1l-1-1v-1l1-1v-1-1-1-1l-1-2v-1-2zm-3 0h1v1h-1zm1 4v-1h1v2h-1zm0 5h1v1h-1zm10 7h1v1h-1zm0 2h1v1h-1zm-9 5v-1h2zm19 6l1-3h1v1l-1 1zm-13 0h1v1h-1zm-6 1h1v1h-1zm6 1l-2-1h2zm0 0h1v1h-1zm3 0h1v1h-1zm-6 20h1v1h-1zm-13 8v-2h1v1 1zm-4 6l-1-3 1 1zm0-3h1v1h-1zm-14 12h1v1h-1zm12 10h1v1h-1zm1 1h1v1h-1zm15 12h1v1h-1zm1 1h1v1h-1zm2 0h1v1h-1zm4 0h1v1h-1zm-3 2v-1h1v2h-1zm2-1h1v1h-1zm1 3v-1h1 1v1h-1zm2 1v-1l2 1-1 1h-1zm8 2h1v1h-1zm2 1h1v1h-1zm2 1h1v1h-1zm11 9l1-1h1l1 1h1l-1 2-2 2-1-1-1 1h-1v-1-2l1-1z"/>
		<path id="Path 15" fill-rule="evenodd" class="s15" d="m60 2l1-1h3l1 1h1l1 1h1l1 1v1l1 1h1v1l1 1h1 1v2 1 2l1 1v3 1l1 2v8l-2 5-1 1h-1v-1-3h1 1v-1-1-9-2h-1l-1 1-2 1v1l-1 1v2 1l2 1v1l1 1v1 1 1l-1 2-1 1v1l-1 1v1h-1-1-1l-1-1h-1l-1-1-1-1-1-1-1-1-1-1v-1l-1-1v-1l-1-1v-1h1 1l1 2 1 1 1 1v1l1 1 1 1 1 1 1 1h1 1v-2-1l-1-1v-5-1l-1-1h-4l-2 2h-1l-1-1h-1l-1-1v-1h1 1 3 1l3-1-1-1-1-2-1-1-1-2-1-1-2 1h-1l-1 2h-1-2-1l-1 1h-1l-1 1h-1v-2l1-1h2l1-1h1l3-2v-1h1 2v-1-1l-1-1-1-1-1 3v1h-1v-1-1-1-2l1-1v-1l1-1 1-1 1-1zm-12 13h1v1h-1zm11 0h1v1h-1zm-13 1h1v1h-1zm14 1v-1l2 1v1l-1 1v2zm-17 0h1v1h-1zm-2 2v-1h1 1v1zm5 1v-2h1v1 1zm9 0v-2h1 1v1 1 1h-1zm7-2h1v1h-1zm-22 1h1v1h-1zm4 2v-2h1l1 1v1h-1zm-35 16v-1h1 1v1zm4 0v-1h1v1l-1 1zm-6 2l4-2h1v1l-1 4 5 14v4l3 4-2 1h-1l-1-1-1-1v-1-1l-1-1v-2l-1-1v-2l-1-1v-1l-1-1v-2l-1-1-1-1h-1-1-1-1v-1l-1-1v-1-2h2l1-1v-1-1zm0-2h1v1h-1zm-1 1h1v1h-1zm13 30l3-1 2 6 1 1-1 3h-1l-1 1v1h-1v-1-1l-1-1v-1h1 1v-2h-1v-1l-1-1v-1l-1-1zm13 0l2 2v1l-1 7-1 2h-1-1v-1-1-1-4-1-1-1zm-17 7h1v1h-1zm2 0h1v1h-1zm2 1h1v1h-1zm-8 2v-1h2 1v1l-1 2zm4-1h1v1h-1zm2 0h1v1h-1zm-3 1h1v1h-1zm2 0h1v1h-1zm8 1v-1h2v1zm-1 1v-1h1v2h-1zm3-1h1v1h-1zm-9 4h1v1h-1zm3 1l-1-1h1 1v1zm1 0l1-1h1v2l-1 2h-1v-1-1zm6-1h1v1h-1zm-3 2h1v1h-1zm7 1v-1h1v1 2h-1v-1zm-12 2l1-1h1v1 1h-1-1zm16 2l-2-3h1l1 1zm-13 0v-1h1l1 1zm-2 1v-1h1 1v1h-1zm10 0v-1h1l-1 2zm3 3l2-4h1v1 2 1l-2 1h-1zm-17-2v-1h1l1 1v1h-2zm3-1h1v1h-1zm3 0h1v1h-1zm2 2v-2h1zm3 1l1-3v3zm7 1h1v1h-1zm-1 1h1v1h-1zm3 1v-1h1v1 1h-1zm-3 1l1-1h1v1 1h2l1 1h2 4v1h-3-1-1l-3 1v1h-1l-2-1v-3zm-4 3v-3l1 1v1 1zm-3 1l1-1h1l1 1v1h-1l-1 1-1 1h-1zm4-1h1v1h-1zm15 1v-1h1 5l-1 1h-3-1zm-3 0h1v1h-1zm3 3l-1-2h1l1 1v1zm22-2h1v1h-1zm-26 4h3v1h-1zm-17 2l1-4v3 1zm11-2h1v1h-1zm-15 1h1v1h-1zm6 1v-1h1 1v1zm9 0l-2-1h1zm11 0l1-1h1v1 2 2 1l-1 1v1l-1 1v1h-1l-1-1v-1l-2-2-2-2 1-1 1-1h1zm-6 2l1-1v1zm-20 2l1-4h1v1 1l3 1 2 2-3 2v2h-1-1l-1-2v-1l1-1-1 1h-1zm5-4h1v1h-1zm19 0h1v1h-1zm-24 7h1v1h-1zm17 3v-1l5 1h-4zm-14 1v-1h1 3l-2 2h-1-1zm11 0v-1l3 1h1v1h-1-1-1zm-3 1v-1h3v1h-1zm9-1h1v1h-1zm-11 2l1-1h1v5h-1-1zm9-1h1v1h-1zm-4 4v-2h1l1 1v1zm-1 0h1v1h-1zm-4 2h1v1h-1zm1 6v-1h1 1v2h-1zm-3 9h1v1h-1zm5 0h1v1h-1zm0 5h1v1h-1zm-4 5h1v1h-1zm10 2h1v1h-1zm1 4h1v1h-1zm-1 2v-1h1v2h-1zm-6 1v-1l3 1h-1-1zm11-1h1v1h-1zm2 0h1v1h-1zm6 1v-1h1l1 1zm-12 0h1v1h-1zm5 0h1v1h-1zm0 2l1-1h1l1 2h-2-1zm-16 3l2-3h1v1 1 1 1h-1-2zm39-3h1v1h-1zm-24 2v-1h1v2h-1zm8-1h1v1h-1zm6 0h1v1h-1zm2 0h1v1h-1zm-9 3v-1h1v1 1 1h-1-1v-1zm23-1h1v1h-1zm-38 3l1-2h1l1 3v1h-1l-2-1zm-5-1h1v1h-1zm-3 4v-1h3v1 1h-1-1zm-1 0h1v1h-1zm8 2v-2h3v1h-1zm-7 1v-2h1v1 1zm-2 1l1-1h1l1 1v1l-3 1v-1zm10 1l1-2h1v3h-1-1zm-12 2v-1h1v1l-1 1zm13 0h1v1h-1zm-17 3h1v1h-1zm13 1v-1h1v1 1h-1zm-15 1l1-1h1v2l-1 1v1l-1 1-2-1v-1l1-1v-1zm17-1h1v1h-1zm-20 5v-1h1v2h-1zm-1 1h1v1h-1zm2 0h1v1h-1zm-1 3v-2h1v1 1zm-3 0h1v1h-1zm-1 2h1v1h-1zm-1 3v-1h1l-1 2zm-1 3v-1h1 2zm-5 1v-1h5v1l-2 1zm-1 1h1v1h-1zm-1 3v-2h1l2 2h-1-1zm3 2l6-1-5 2h-1zm0 2h1v1h-1zm20 1v-1h1 1v1l-1 1zm-18 2v-1l2 1h-1zm22 0h1v1h-1zm-11 1h1v1h-1zm10 0h1v1h-1zm0 6v-1h2v1l-1 1zm38 0v-1h1 2l1 1v3l1 1h1 1v1 1 2l-1 1-1 1v1h-1l-1 2 1 1v1 1l2 1v1l1 1h1v-1-1l1-2v-8l-1-2-1-1v-1-1h2l1 1v4 6 1 5l-1 1v1 2l-1 1 1 1v2l-1 1h-2l-1 1-1 1v1l-1 1-1 1h-2l-1 1h-2v-1-1h1 1l2-2 1-2-1-1h-1-1l-1 1h-1l-1 1h-1v-1l-1-2h-1v-1l-1-1v-1l3-3 1-1v-1l1-1 1-2h1v-1l-3-1v-1h1 3l1-1 1-1-1-3v-1l1-1v-1-3l-1-1zm4 22h1v-1h-1zm-7-21l1-1h1v1 1h-1-1zm-38 1v-1l1 2h-1zm6-1h1v1h-1zm1 2h1v1h-1zm30 0h1v1h-1zm-36 1h1v1h-1zm33 2v-2h1v2zm-22 2l1-1h1v1l-1 1h-1zm3 2v-2h1v1 1zm18-2h1v1h-1zm-22 1h1v1h-1zm23 0h1v1h-1zm-22 2v-1l1 1 1 1v1h-1-1zm4 0v-1h1 1v1 2zm15 0l1-1h1v1 1h-1-1zm-21 0h1v1h-1zm27 1l-2-1h1 1zm-16 2v-1h1 1v1zm9 0l1-1h1v1 1h-1-1zm-15 0h1v1h-1zm2 2l1-1h1v1h-1zm2 1v-1l2 1h-1zm2 1v-1h1 1v1h-1zm2 1v-1h1 1v1h-1zm2 1v-1h1 1v1h-1zm3 0h1v1h-1zm3 1h1v1h-1zm1 1h1v1h-1zm-3 2h1v1h-1zm1 4v-2h1v2zm2-2h1v1h-1zm4 7v-2h1v1 1 1h-1z"/>
		<path id="Path 16" fill-rule="evenodd" class="s16" d="m53 13l1-2h1v1l1 1-3 2zm3-2h1v1h-1zm3 1h-2 1zm-9 3v-1h2v1l-1 1zm8 0l2-1v1h-1zm-2 2l1-2v1 2h-1zm4-1v-1h1l1 2zm-15 0h1v1h-1zm2 1v-1h1v1 2h-1v-1zm12-1h1v1h-1zm-15 1h1v1h-1zm1 2v-1h1v2zm-7 1l1-1h1v1 1l-2 1 2-1 1-1 2-1h1v2 1h-1-1l-1 1-1 1v1h-1l-1 1-1 1h-1l-1 1-1 1-1 1-1 1-1 1-1 1 1 1 1 1v4h-1-1l-1 1-2 6v1 2h1v2l1 1v1l1 1v1 1h1l1 1v1l1 1 1 1 1 1h1l1 1 1 1v1l1 1v2h-1l-1 1-1 1v1h-1-1l-2-2-2 2v1l-1 1h-1v1 4l1 1 1 1v1l-1 1v1h-1l-1-3-1-1h-2-1-1l1-1h1l1-3-1-1-2-6-3 1h-1v-1-1l-1-1 2-1-3-4v-4l1-1 1-1h1-1l-1 1-1 1-5-14 1-4h1l1-1 1-1 2-2h1v1h1v-1h-1v-1-1h1l2-1v-1l1-1 1-1h1l1-1 2-1 2-1 1-1h1l1-1h1l1-1 1-1h1l1-1zm-19 27l1 1 1 2 1-4-1-3h-1l-1 1zm4 15l1 1 1 1 2 1 1-2v-1l-1-1-1-1h-3v1zm34-41h1v1h-1zm3 6l-1-2h1zm12 2h1v1h-1zm-53 2h1v1h-1zm-3 2h1v1h-1zm-4 1h1v1h-1zm-1 1h1v1h-1zm1 1h1v1h-1zm-5 2l1-1h1 2l-4 2zm-1 1h1v1h-1zm-1 2h1v1h-1zm28 37l1-7h1v1 11 1 2l-1 1h-1v-1-1-4h-1v-1zm-18-2h1v1h-1zm3 0h1v1h-1zm-2 1h1v1h-1zm4 0h1v1h-1zm-5 1h1v1h-1zm2 1h1v1h-1zm4 0h1v1h-1zm1 1h1v1h-1zm1 2l1-1h3v1l-1 1v1l-1 1h-1l-1-2zm-9 1v-1h3 1 1v1h-1-1zm6 0v-1h1 1v1h-1zm7-1h1v1h-1zm-10 2h1v1h-1zm3 0h1v1h-1zm-6 1h1v1h-1zm2 0h1v1h-1zm6 2l1-2h1v1l-1 3h-1-1v-1zm3-2h1v1h-1zm2 1v-1h2v1 2 1 1h-1-1-1l1-2zm3-1h1v1h-1zm-10 1h1v1h-1zm15 1v-1h1v4h-1v-2zm-16 0h1v1h-1zm-2 2v-1h1 1v1zm14-1h1v1h-1zm-15 2h1v1h-1zm3 0h1v1h-1zm3 1v-1h2 2l-1 1h-1-1zm7-1h1v1h-1zm7 4v-1h1v3h-1-1v-1zm-9 0h1v1h-1zm5 2v-1h1v1 1h-1zm2 0h1v1h-1zm-1 1h1v1h-1zm2 2v-1h1 1v1zm-4 1v-1h1 1v3h-2v-1zm-5 2v-2h1v1zm30-1v-1h2zm4 0v-1h1v1l1 1h1 2l2 1v1h-1-3-1-1-1zm-31 1l-1-1h1 1v1zm15-1h1v1h-1zm6 1l1-1h4l-1 2h-3-1zm18 1h1v1h-1zm-42 2h1v1h-1zm0 2h1v1h-1zm-1 1h1v1h-1zm3 1v-1h1 1l-1 1zm-5 0h1v1h-1zm-1 1h1v1h-1zm3 0h1v1h-1zm16 0h1v1h-1zm-18 8h1v1h-1zm9 1v-1h5v1 1l-3-1zm-2 1h1v1h-1zm-1 1h1v1h-1zm4 1v-1h1 1 1v1l-1 1h-1zm4 1v-2h1v1 1zm-4 1v-1h1v2h-1zm2-1h1v1h-1zm-1 3v-1h2v1zm-5 0h1v1h-1zm4 0h1v1h-1zm1 4v-3l2 1v1zm2 0h1v1h-1zm-5 1h1v1h-1zm-2 2h1v1h-1zm2 6v-1h1l1 1v1h-1-1zm0 2h1v1h-1zm1 5h1v1h-1zm8 4h1v1h-1zm-9 3l2-1h1v1h-1zm10-1h1v1h-1zm-10 8h1v1h-1zm13 0h1v1h-1zm-6 1h1v1h-1zm7 0h1v1h-1zm26 1l1-1h1v2h-2zm-41 0h1v1h-1zm14 0h1v1h-1zm22 0h1v1h-1zm2 0h1v1h-1zm-25 1h1v1h-1zm31 2l-1-2h3 1v3h-1zm-14 0v-1h4 1 1v1zm9-1h1v1h-1zm-23 2l1-1v1 1h-1zm26 0l2-1v1h-1zm-36 1h2-1zm38 0v-1h2v1h-1zm-44 0h1v1h-1zm4 1v-1h2l-1 2zm14 0l1-1v1 1h-1zm-10 0h1v1h-1zm-4 4v-2h1l2 1v1zm0 2l2-1v2l-1 2h-1v-2zm-6 0h1v1h-1zm-4 4h1v1h-1zm6 0h1v1h-1zm6 0h1v1h-1zm-14 2v-1h1v1 1zm13 1v-2h1l1 1v1 1h-1zm39 0v-2h2v1 1zm-51 2v-2h2v1l-1 1zm10-1h1v1h-1zm-15 0h1v1h-1zm4 1h1v1h-1zm12 2l-2-1h1 1zm0 0l1-1h1v1 1h-1-1zm-19 4v-2l2 1-1 1zm6-2h1v1h-1zm8 1l1-1h1 2v1h-1zm-7 0h1v1h-1zm-8 1h1v1h-1zm-2 2v-1h1 1v2l-1 2-1 2-1 3h-2v-1l1-2v-1l1-1v-1l1-1zm3-1h1v1h-1zm0 2l1-1 1 2h-1l1 3h2v1 1l-1 1v1l-1 1v2 1l1 1 1 1h1v-1h1v-1-1l1-1v-4-1-1-1-1l1-1 1 1 1 1h1l1 2v1 1 1l-1 1v1 2h-2v1h2v1l-1 3h-1-1l1 1 1 1v1h-1v1h1v-1h1l1 1v1l-1 1h1 1l1 1v1l-2 1v1l-3-2-3-1v-2l-3-1h-1l-1-1v-1-1l-1-1 1 1v1 1 1 1h-2l1 1v1h-4v-1l1-1v-1l-2 1h-1l-1-1v-1l-2-1-1-1v-1-1l5-2-6 1h-1v-1l1-1-2-2 1-1v-1l3 1h2v-1-1l3-1 1-3 1-2 1-2zm4 3h1v1h-1zm8 2v-2h1v1 1zm-21 5l2-1v1zm-4 3h1v1h-1zm24 5v-1h2l1 1-1 2v1h-1l-1-1v-1zm-16 4h1v1h-1zm6 1v-1h1v2h-1zm12 0v-1h2v1h-1zm-7 4v-1l3 2v1h-2zm47-1h1v1h-1zm-40 2l1-1h1v1 1zm3 0h1v1h-1zm-10 1h1v1h-1zm9 0h1v1h-1zm31 0h1v1h-1zm-37 2v-1h1 1v1h-1zm8 0v-1h1 1l1 1 1 1 1 1v1l-1 1zm27 0v-1h1 1v1 2h-2zm10-1h1v1h-1zm-43 1h1v1h-1zm32 3v-1h1v2 1h-1v-1zm-29 1l1-1h1l1 1-1 1h-1zm3 1v-1l3 1v1h-1-1-1zm5 0l1-1h1v2h-1zm3 0h1v1h-1zm17 1v-1h1l1 1h1v1h-1-1-1zm-22 0h1v1h-1zm4 0h1v1h-1zm27 0h1v1h-1zm-24 3v-2h1 1v1l-1 1zm19-2h1v1h-1zm4 0h1v1h-1zm-21 2v-1h1v1 1h-1zm24 0h1v1h-1zm-21 3l-2-2h2 1 1l1 1v1l-1 1h-1-1zm11 2l2-4v2 1 2 1l-3 3v-1l-1-1h-1-1l-1-2-1-1h-1-1v-1-1h1 1l1 1h1 1v-2h1v3l1 1zm3-1v-1h1v1l-1 1zm10 0l-2-1h2zm-27 0h1v1h-1zm2 1h1v1h-1zm2 1h1v1h-1zm12 0h1v1h-1zm-10 1h1v1h-1zm3 4v-1h1 1v1h-1zm3-1h1v1h-1zm-1 5v-2h1l1 1 1-1h1l1 2-4 2h-1v-1zm11-1l1 1h-1z"/>
		<path id="Path 17" fill-rule="evenodd" class="s17" d="m52 14v-1h1v2h-1zm-3 2v-1h1l1 1zm-1 0h1v1h-1zm-3 2v-1h1 1v1h-1zm-2 1v-1h1 1v1h-1zm-2 1v-1h2zm-1 0h1v1h-1zm-21 12l1-1h1zm-2 1h1v1h-1zm-4 2v-1h1v2h-1zm2 1v-2h1 1zm3-2h1v1h-1zm-7 2h1v1h-1zm3 0h1v1h-1zm-2 1h1v1h-1zm-7 5h1v1h-1zm29 28h1v1h-1zm-12 9v-1h1v1 1h-1zm5 1v-1l1 3h-1v-1zm4 0h1v1h-1zm-8 1h1v1h-1zm6 1l3-1h1v3l-1 1h-1-1-1-2v-1l1-1v-1zm-10 0h1v1h-1zm-1 2v-1h1l1 1v1 1l-1 1v1h-1l-1-2v-1zm5 1v-2l1 2zm3-2h1v1h-1zm-11 2h1v1h-1zm11 0h1v1h-1zm6 0h1v1h-1zm-15 5v-1h2 1v1h-1-1zm4-1h1v1h-1zm7 2v-1h1l1 1v1 2l1 1 1 1v1l-1 2h-1v-1l-1-1-1-2v-1zm-7 0h1v1h-1zm11 3h1v1h-1zm-5 5v-4h1l1 2v1 3h-1-1v-1zm8-3h1v1h-1zm-3 3v-2h1v1 1zm-2 1h1v1h-1zm14 1v-1h2v1h-1zm-3 1v-1h3v1h-1-1zm18 2v-3h1v3zm8-1l-2-1h3v1zm-45 6h1v1h-1zm0 2l1-1h1 1l1 1v1h-1zm18 0h1v1h-1zm-3 8h1v1h-1zm-8 1h1v1h-1zm2 6v-5h2v1 1 1 1 1 1l-1 4h-1v-1-1zm5-4v-1h1v2h-1zm23 3v-3h1v2 1zm-25 2v-1h2v2zm0 3l-1-3h1zm-5-1v-1h1v1 1 1h-1zm5 1l2-1v1l1 1v1zm-5 2h1v1h-1zm9 3l-1-2h1zm-8 3v-2h1v2zm2 0v-1l1 2zm7 1l-1-2h1zm-8 1h1v1h-1zm8 2v-2 1zm-7 1h1v1h-1zm8 2v-2 1zm0 1h1v1h-1zm0 2h1v1h-1zm0 3v-2 1zm1 0h1v1h-1zm-10 3l2-1h1 1l2 3 1-1h1v2l-1 1v1 1h-1v1h-2l-3-1h-1zm7 0l3-1h1l1 1v1l-1 1h-1-1v-1l-1-1zm4 3v-1h1 1 1 1 1 4v1l-1 3h1v1l-1 2 1 1v1l-1 1-1 1-1 1h-1v-1-1l1-4v-1l-1-1h-1-1-1-1v-2zm10 1v-1h2v3 1l1 1v1l1 1h1v1l-1 1h-1-1-1v-2h-1l1-3-1-1v-1zm-10 3v-1h1l1 1v1 1h-1l-1-1zm-12 0h1v1h-1zm1 1l1-1h1 1 1l2 1v1h1v-1h1l1 1 1-1h1l1 1v1l-1 1h-1l-1 1v1 1h-1-1v-1h-2-2v-1-1h-1l-1-1h-1v-1zm6-1h1v1h-1zm34 0h1v1h-1zm2 2v-2h1 2v1 1zm-4 0v-1h1 1v1l-1 1h-1zm-3 1v-1h1l1 1-1 2h-1v-1zm4 0l1-1h2l1 2-2 1-1 1h-1l-1-1v-1zm-25 2v-2h2v1l-1 1zm13-2h1v1h-1zm16 1l2 1h-2zm-47 3v-2h1v1zm7 2v-2l1 1v1zm-4 1v-2h1v2zm7 1v-1h1v2h-1zm-8 2v-1h1l1 1v1l1 1v1l-1 1h-1l-1-1h-1v-1-1zm-4 4l3-1v1 1h-1l-1 1-1 1h-2v-1l1-1zm6 0l1-1h1 1 1v1 1 2 1h-1-1-1l-1-1v-1-1zm-11 3l1-1h1l1 1v2h-1l-1 1v1 1 1 1 2h1v-1l1-1h5 1 3v1 1l-1 1-1 1v1l-1 1v1h-1-1-1-1l-1-1-1-1-1 1h-1l-1 1h-1l-1-1v-1h-1l-1-2v-1-1l1-1 1-1v-1l1-1v-2l1-1zm15 2v-1h1 1v1l-1 1h-1zm-2 0h1v1h-1zm-2 2v-1h1l2 1v1l-1 1h-2zm3-1h1v1h-1zm-12 3h1v1h-1zm7 0h1v1h-1zm-14 4h1v1h-1zm1 2h1v1h-1zm1 3v-2h1l1 1v1zm10 1l-1-2h1zm-10 7h1v1h-1zm7 1v-1h2v1zm-6 0h1v1h-1zm7 4l1-3v3zm-21-1h1v1h-1zm24 4l1-2h1l1 1v2h-1l-1-1zm-3-1h1v1h-1zm-15 3l2-1-1 1zm8-1l3 1v2h-1l-1-1-1-1zm6-1h1v1h-1zm-8 1h1v1h-1zm12 1v-1h1 1v1zm-17 0h1v1h-1zm4 1l-1-1h2v1zm2 1v-2h1l1 1v1h1 1l3 1 3 2 1 1 2 1 1 1 1 1 4 4v1h-1l-3-1-1-1-1-1v1l-1 1h-1-1l-1-1-1-1v-1h1 1v-1l-1-1h-1l-1-2-3-2v1l1 2h-1-1l-1-1h-1l-1-1-1-1v-1zm10-2h1v1h-1zm1 1h1v1h-1zm-1 3l2-1v1zm2 0h1v1h-1zm1 1h1v1h-1zm-8 3v-1h2v1 1h-1-1zm9 0v-1h1 1v1h-1zm-7 1h1v1h-1zm14 3h1v1h-1zm-2 3v-1h1l1 1v1h-1zm-3 0h1v1h-1zm9 0h1v1h-1zm-4 2v-1h1 1l2 2h1 1v1l-1 1h-1l-2-1v-1h-1-1zm30 1l1-2v2zm-31 0h1v1h-1zm6 2l1-1h1l2 2-1 1h-1l-2-1zm4 2h1v1h-1zm2 1v-1h1v1 1h-1zm11 1v-2h1v1 1zm-9 0v-1h1v1 1h-1zm2 1v-1l1 2h-1zm4 5h1v1h-1zm8 2h1v1h-1zm-5 4v-2h1v2zm1 1h1v1h-1z"/>
		<path id="Path 18" fill-rule="evenodd" class="s18" d="m55 12h1v1h-1zm0 5h1v1h-1zm1 4h1v1h-1zm1 3h1v1h-1zm14 8l1-2v3h-1zm4 24h1v1h-1zm-59 19h1v1h-1zm2 1v-1h1 1v1h-1zm-4 1v-1h1v1 1h-1zm4 0h1v1h-1zm-9 14v-13h2l2 2 1-2 1 1h1 1v1 1 1h-3v1h3v1l-1 1h-1-1v1h1 1 1l1 2h-1v1 1h-1v1 1h-1-1-1v-1h-1-2zm8-13h1v1h-1zm6 0h1v1h-1zm1 3v-2h2l1 1v1zm-2 1v-1h1v1 1h-1zm-1 1h1v1h-1zm-1 2h1v1h-1zm3 4l1-3h1 1 1v2l-1 2h-2zm9-1v-2h1v1l2 3-2 4h-1-2v-2l1-2 1-1zm-11-1h1v1h-1zm13 0h1v1h-1zm-14 2h1v1h-1zm-3 2v-1h1l1 1v1h-1zm8 0l1-1h1 1v1l-1 3v1 4l-1 1v2l-1 3-1 4h-1-1-1v-1-1-1-2l1-1v-2-2-1l1-1 1-1v-1-1-1zm-3 1l1-1h1v2h-1-4v-1h1 1zm12 3l2-1-1 1zm-1 0h1v1h-1zm-4 3h1v1h-1zm1 1h1v1h-1zm26 2l2-1h1v1 3h-1-2l-1-1h-1l1-2zm-16 2l1-1h1l1 1h1l1 2v1l-1 1h-3l2 1v1 1h-1-1l-1 1v1l2 2 2 2v1 1 1 1h-1-1v-1l-5-1h-5v1h2v1h-3-1-1v1 1 4 1 1 1l-1 9h-1l-1-2v-1-2h-1v-1-1-3-1l-1-2v-3-1h1l2-2h-3v-1-2l3-2-1-2v-1-1-1h2 1l1-1h1 1 1l2 1v-1l1-1v-1l1-1 1-1 1-1zm-11 0v-1h1 1 2l2 1v1 1l-1 1v2h-1-1-1-1-1v-2-1-1zm-4 5v-3h1v1 1 1zm21 0h1v1h-1zm-26 5v-4h1zm4-4h1v1h-1zm3 5l-2-2h1zm-7 1h1v1h-1zm1 2v-1l1 2h-1zm1 1h1v1h-1zm22 0h1v1h-1zm-6 3v-1h2v1h-1zm3-1h1v1h-1zm-11 7v-1h1v3h-1v-1zm0 4v-1h1v1 1h-1zm-1 3h1v1h-1zm2 2v-2h1v2zm-1 2h1v1h-1zm-2 4l1-2h1v1 3h-1l-1-1zm4-2h1v1h-1zm-1 2h1v1h-1zm-1 3v-1l2 3v1h-3v-1-1zm-1 7l4-1v1l-2 1v1 6l-1 1v1 1l-2 3v-3l-1-1v-1-6-1l1-1zm11 6v-2h1v1l-1 2zm2 2v-2h1v2zm-3 1v-2h1v2zm12-2h1v1h-1zm-5 2v-1h1l1 1v1l-1 4v-1-1l-1-2zm-5 0h1v1h-1zm9 2l1-2h2l-1 3h-1zm-11-1h1v1h-1zm28 0h1v1h-1zm1 2v-1h1v1 1 1h-2zm-24 2v-2h1v2zm7-1l1-1h1v2l-1 1h-1v-1zm-6 1h1v1h-1zm27 0h1v1h-1zm-45 2l1-1h2v1 1 2h-3v-1h1v-1h-1zm11 2l-1-3h1v1 1zm11-3h1v1h-1zm-2 1h1v1h-1zm-21 6v-1h1v2h-1zm2-1h1v1h-1zm8 2v-2h1v2zm-11 0h1v1h-1zm2 0h1v1h-1zm-3 2h1v1h-1zm11 1h1v1h-1zm-12 31h1v1h-1zm41 10h1v1h-1zm7 3h1v1h-1zm-14 4h1v1h-1zm-1 2h1v1h-1zm-1 3h1v1h-1zm-1 4v-1h1v2h-1zm-3 4h1v1h-1zm2 2v-1h1 1l1 1v1h-1-1zm1 3v-1h1v1 1h-1zm3 1h1v1h-1zm-1 4l4-2v1 2 2h-1-1l-1-1-1-1zm5 3h1v1h-1z"/>
		<path id="Path 19" class="s0" d="m65 203h1v1h-1z"/>
		<path id="Path 20" class="s1" d="m9 76h1v1h-1zm13 19h1v1h-1zm28 4h1v1h-1zm19 3h1v1h-1zm1 1h1v1h-1zm-2 2h1v1h-1zm-45 71h1v1h-1zm-1 1h1v1h-1zm-3 3h1v1h-1zm-1 1h1v1h-1zm-1 1h1v1h-1zm-1 1h1v1h-1zm14 0h1v1h-1zm-15 1h1v1h-1zm7 2h1v1h-1zm8 23h1v1h-1zm1 2v-1 4-1zm37 5h1v1h-1zm-38 2h1v1h-1zm-13 1h1v1h-1zm14 0h1v1h-1zm4 3h1v1h-1zm1 1h1v1h-1zm1 1h1v1h-1zm1 1h1v1h-1zm3 2h1v1h-1zm1 1h1v1h-1zm3 2h1v1h-1zm3 2h1v1h-1z"/>
		<path id="Path 21" class="s2" d="m33 220h1v1h-1zm1 1h1v1h-1z"/>
		<path id="Path 22" fill-rule="evenodd" class="s3" d="m66 1h1v1h-1zm-9 1h1v1h-1zm10 0h1v1h-1zm-11 1h1v1h-1zm12 0h1v1h-1zm1 1h1v1h-1zm1 1h1v1h-1zm4 2h1v1h-1zm1 3v-2 3zm-4 3h1v1h-1zm-35 6h1v1h-1zm-7 4h1v1h-1zm-5 3h1v1h-1zm-1 1h1v1h-1zm-3 2h1v1h-1zm-1 1h1v1h-1zm-1 1h1v1h-1zm13 0h1v1h-1zm0 2h1v1h-1zm-21 1h1v1h-1zm22 1v-1 5zm-25 1h1v1h-1zm-1 1h1v1h-1zm-1 1h1v1h-1zm-2 3h1v1h-1zm-1 1h1v1h-1zm18 0h1v1h-1zm-1 1h1v1h-1zm3 3l-1-3 1 2zm-4 0l1-2v3h-1zm3 4l1-4h1v1 5h-1-1v-1zm-1-1v-1l1 2h-1zm12 8h1v1h-1zm1 1h1v1h-1zm-10 2v-1h2 1v1zm11-1h1v1h-1zm-8 1h1v1h-1zm-4 1h1v1h-1zm5 0h1v1h-1zm10 0h1v1h-1zm-10 4l1-2v1 1zm-2 0v-1l2 1v1h-1-1zm14 0v-1 3zm-26 10h1v1h-1zm8 22h1v1h-1zm26 10h1v1h-1zm1 1h1v1h-1zm-34 77h1v1h-1zm-2 3h1v1h-1zm56 53v-2h1 1l1 1v1 1h-1-1-1zm1 0h1v-1h-1zm-1 9h1v1h-1zm-1 1h1v1h-1z"/>
		<path id="Path 23" class="s5" d="m70 15l1-2 1 1v1h-1zm2 2h1v1h-1zm-11 1h1v1h-1zm-31 14h1v1h-1zm40 0h1v1h-1zm-62 16h1v1h-1zm14 4h1v1h-1zm0 8h1v1h-1zm6 2h1v1h-1zm14 102h1v1h-1zm18 2h1v1h-1zm6 53h1v1h-1z"/>
		<path id="Path 24" class="s6" d="m57 8h1v1h-1zm1 1h1v1h-1zm11 6v-3h1 2v1h-1l-1 2zm1 0h1v1h-1zm-13 4h1v1h-1zm13 0h1v1h-1zm-6 1h1v1h-1zm-26 5h1v1h-1zm19 1h1v1h-1zm1 2h1v1h-1zm-25 1h1v1h-1zm26 1h1v1h-1zm4 4h1v1h-1zm2 1h1v1h-1zm-43 10h1v1h-1zm-19 1h1v1h-1zm62 0h1v1h-1zm-46 2h1v1h-1zm-9 4h1v1h-1zm12 1h1v1h-1zm1 6l2-1v1zm-1 0h1v1h-1zm4 0h1v1h-1zm2 4h1v1h-1zm-4 1h1v1h-1zm1 2h1v1h-1zm38 4h1v1h-1zm-43 1h1v1h-1zm9 0h1v1h-1zm5 34h1v1h-1zm26 53h1v1h-1zm15 1h1v1h-1zm-43 5h1v1h-1zm29 44h1v1h-1zm4 0h1v1h-1zm-57 5h1v1h-1zm55 5h1v1h-1zm-38 7h1v1h-1zm46 2h1v1h-1zm-1 1h1v1h-1zm-1 10h1v1h-1zm-2 3h1v1h-1zm3 1h1v1h-1zm3 0h1v1h-1zm0 4h1v1h-1z"/>
		<path id="Path 25" class="s7" d="m75 156h1v1h-1zm0 50h1v1h-1z"/>
		<path id="Path 26" class="s8" d="m75 109h1v1h-1zm0 12h1v1h-1zm-45 70h1v1h-1zm29 36h1v1h-1z"/>
		<path id="Path 27" class="s9" d="m65 248h1v1h-1z"/>
		<path id="Path 28" class="s10" d="m75 102h1v1h-1zm0 2h1v1h-1zm0 9h1v1h-1zm-1 15h1v1h-1zm-14 11h1v1h-1zm-16 17h1v1h-1zm2 0h1v1h-1zm-17 21h1v1h-1zm0 16h1v1h-1zm45 10h1v1h-1z"/>
		<path id="Path 29" class="s11" d="m68 13l1-1v3h-1v-1zm1 3v-1h1v1 1zm2-1h1v1h-1zm2 1h1v1h-1zm-22 1h1v1h-1zm-2 1h1v1h-1zm6 2h1v1h-1zm14 0h1v1h-1zm-29 3h1v1h-1zm16 0h1v1h-1zm10 0h1v1h-1zm-31 4h1v1h-1zm-1 1h1v1h-1zm26 3h1v1h-1zm1 1h1v1h-1zm1 1h1v1h-1zm11 0h1v1h-1zm-6 1h1v1h-1zm2 0h1v1h-1zm-40 5h1v1h-1zm-10 3h1v1h-1zm-1 5h1v1h-1zm-9 2h1v1h-1zm11 1h1v1h-1zm1 2h1v1h-1zm-10 2h1v1h-1zm1 3h1v1h-1zm13 1h1v1h-1zm2 2v-1l1 2h-1zm-14 0h1v1h-1zm15 1h1v1h-1zm-6 1h1v1h-1zm-8 1h1v1h-1zm9 0h1v1h-1zm-8 1h1v1h-1zm13 0h1v1h-1zm-1 1h1v1h-1zm-1 1h1v1h-1zm11 1h1v1h-1zm-1 1h1v1h-1zm-17 1h1v1h-1zm8 34h1v1h-1zm11 0h1v1h-1zm17 0h1v1h-1zm-8 11h1v1h-1zm-1 2h1v1h-1zm10 49h1v1h-1zm-32 17h1v1h-1zm-6 16h1v1h-1zm-1 2h1v1h-1zm-12 10h1v1h-1zm57 9h1v1h-1zm-43 1h1v1h-1zm52 1h1v1h-1zm1 2h1v1h-1zm-4 15h1v1h-1zm4 0h1v1h-1zm2 0h1v1h-1zm-7 2v-1h1v2h-1zm4 1h1v1h-1zm-2 1h1v1h-1zm1 5h1v1h-1zm-1 1h1v1h-1zm-13 2h1v1h-1zm8 2h1v1h-1z"/>
		<path id="Path 30" class="s13" d="m66 6h1v1h-1zm-41 125h1v1h-1z"/>
		<path id="Path 31" class="s14" d="m62 6v-2h1l1 1 3 1h-1l-1 1h-1l-1-1zm4 1l1-1-1 2zm1 6h1v1h-1zm-3 1h1v1h-1zm3 4v-3h1v1 2zm-36 49h1v1h-1zm-4 1h1v1h-1zm-2 1h1v1h-1zm4 0h1v1h-1zm-3 1h1v1h-1zm9 52h1v1h-1zm-3 2h1v1h-1zm1 33h1v1h-1zm19 1h1v1h-1zm-22 2h1v1h-1zm12 2h1v1h-1zm11 1h1v1h-1zm-29 27h1v1h-1zm-6 2h1v1h-1zm8 2h1v1h-1zm-16 16h1v1h-1zm1 3h1v1h-1zm7 3h1v1h-1zm11 11h1v1h-1zm14 6h1v1h-1zm3 2h1v1h-1zm20 5v-4h1v2 1 1zm-3-1h1v1h-1z"/>
		<path id="Path 32" fill-rule="evenodd" class="s15" d="m41 22h1v1h-1zm-22 12h1v1h-1zm-1 1h1v1h-1zm11 1h1v1h-1zm-4 2h1v1h-1zm-3 3h1v1h-1zm-4 7v-2 1zm5-2h1v1h-1zm-4 3l-1-1h1zm-4 2h1v1h-1zm2 3h1v1h-1zm2 0h1v1h-1zm1 2h1v1h-1zm-2 4h1v1h-1zm3 1v-1h1v1 1 1zm8 0v3-1-1zm-6 4h1v1h-1zm-2 1h1v1h-1zm7 0h1v1h-1zm-1 2l-1-1h1 1v1zm-14 12h1v1h-1zm-2 1h1v1h-1zm22 3v-3 4zm-20-2h1v1h-1zm13 0h1v1h-1zm-10 2h1v1h-1zm3 2h1v1h-1zm15 0h1v1h-1zm-18 1h1v1h-1zm11 2h1v1h-1zm-15 1h1v1h-1zm21 1h1v1h-1zm-4 6h1v1h-1zm-6 2h1v1h-1zm3 0h1v1h-1zm5 1h1v1h-1zm31 3h1v1h-1zm-33 2h1v1h-1zm1 2h1v1h-1zm2 0h1v1h-1zm-4 2h1v1h-1zm13 0h1v1h-1zm-15 1h1v1h-1zm4 2h1v1h-1zm8 1h1v1h-1zm-11 5h1v1h-1zm4 0h1v1h-1zm12 0h1v1h-1zm-14 1h1v1h-1zm4 3h1v1h-1zm-7 2h1v1h-1zm4 29h1v1h-1zm6 3h1v1h-1zm0 3h1v1h-1zm11 2h1v1h-1zm7 4h1v1h-1zm17 1h1v1h-1zm-43 3h1v1h-1zm-3 11h1v1h-1zm10 1h1v1h-1zm-14 2h1v1h-1zm5 9v-2h1v1zm-2 8h1v1h-1zm-16 1h1v1h-1zm16 1h1v1h-1zm-3 2h1v1h-1zm2 0h1v1h-1zm-1 4h1v1h-1zm-7 3h1v1h-1zm1 1h1v1h-1zm7 0h1v1h-1zm3 0h1v1h-1zm-2 1h1v1h-1zm-6 1h1v1h-1zm8 0h1v1h-1zm-7 1h1v1h-1zm1 3h1v1h-1zm6 4h1v1h-1zm4 3h1v1h-1zm9 6h1v1h-1zm4 0h1v1h-1zm6 4h1v1h-1zm5 1h1v1h-1zm-2 1h1v1h-1zm1 4h1v1h-1zm4 10h1v1h-1z"/>
		<path id="Path 33" fill-rule="evenodd" class="s16" d="m62 3h1v1h-1zm0 3h1v1h-1zm4 2l-2-1h1 1zm-5 1h1v1h-1zm3 4h1v1h-1zm4 2h1v1h-1zm2 1h1v1h-1zm-8 1h1v1h-1zm-4 7h1v1h-1zm15 6h1v1h-1zm-62 11h1v1h-1zm-4 3h1v1h-1zm20 22h1v1h-1zm5 18h1v1h-1zm-1 24h1v1h-1zm-8 7h1v1h-1zm21 2h1v1h-1zm-10 36h1v1h-1zm5 1h1v1h-1zm3 1h1v1h-1zm0 2h1v1h-1zm4 2h1v1h-1zm4 0h1v1h-1zm-13 4h1v1h-1zm33 0h1v1h-1zm-36 1h1v1h-1zm6 1h1v1h-1zm10 0h1v1h-1zm-1 1h1v1h-1zm20 0h1v1h-1zm-38 11h1v1h-1zm-5 2h1v1h-1zm10 4h1v1h-1zm-3 3h1v1h-1zm-8 3h1v1h-1zm2 0h1v1h-1zm0 2l1-1-2 2zm-5 1h1v1h-1zm-4 2h1v1h-1zm2 0h1v1h-1zm5 16h1v1h-1zm4 2h1v1h-1zm-9 4h1v1h-1zm7 8h1v1h-1zm2 0h1v1h-1zm40 1h1v1h-1zm-5 8h1v1h-1zm2 2h1v1h-1zm1 3h1v1h-1zm0 4l-1-2h1v1zm4-1v-1l1 1zm0 1h1v1h-1zm-14 1h1v1h-1zm6 3h1v1h-1zm0 4h1v1h-1z"/>
		<path id="Path 34" class="s17" d="m63 4h1v1h-1zm-3 10h1v1h-1zm7 0h1v1h-1zm0 4h1v1h-1zm-30 4h1v1h-1zm-2 1h1v1h-1zm-1 1h1v1h-1zm-2 1h1v1h-1zm-1 1h1v1h-1zm-1 1h1v1h-1zm-3 2h1v1h-1zm-4 2h1v1h-1zm-7 7h1v1h-1zm-1 1h1v1h-1zm1 16h1v1h-1zm5 0h1v1h-1zm-4 10h1v1h-1zm9 4h1v1h-1zm-1 1h1v1h-1zm1 8h1v1h-1zm3 3h1v1h-1zm3 51v-1 3zm-2 1h1v1h-1zm7 3h1v1h-1zm-5 9h1v1h-1zm7 2h1v1h-1zm-6 1h1v1h-1zm27 1h1v1h-1zm-9 9h1v1h-1zm-24 4h1v1h-1zm25 4h1v1h-1zm-25 24h1v1h-1zm-5 5h1v1h-1zm-9 2h1v1h-1zm9 0h1v1h-1zm2 1h1v1h-1zm2 0h1v1h-1zm0 2h1v1h-1zm-10 3h1v1h-1zm0 4h1v1h-1zm-2 1h1v1h-1zm3 0h1v1h-1zm-2 1h1v1h-1zm5 0h1v1h-1zm-4 1h1v1h-1zm3 0h1v1h-1zm7 0h1v1h-1zm0 5h1v1h-1zm5 12h1v1h-1zm28 11h1v1h-1zm-3 2h1v1h-1zm5 7h1v1h-1zm1 3h1v1h-1z"/>
		<path id="Path 35" class="s18" d="m67 30h1v1h-1zm-45 44v-1 2zm-2 2h1v1h-1zm3 0h1v1h-1zm7 2h1v1h-1zm4 21h1v1h-1zm-8 5h1v1h-1zm15 2h1v1h-1zm3 4l1-1h1l-3 1zm-22 3h1v1h-1zm20 0h1v1h-1zm-21 1h1v1h-1zm23 1h1v1h-1zm-10 5h1v1h-1zm-6 19h1v1h-1zm10 18h1v1h-1zm-11 15h1v1h-1z"/>
		<path id="Path 36" class="s3" d="m19 47h1v1h-1zm4 15h1v1h-1zm1 1h1v1h-1z"/>
		<path id="Path 37" class="s17" d="m63 6h1v1h-1zm2 0h1v1h-1z"/>
	</g>
</svg>